<svg width="24" height="24" viewBox="0 0 24 24" fill="none" xmlns="http://www.w3.org/2000/svg">
<path d="M15.2686 12.771C15.2686 13.4626 14.7543 14.0295 14.1029 14.0295C13.4629 14.0295 12.9371 13.4626 12.9371 12.771C12.9371 12.0794 13.4514 11.5125 14.1029 11.5125C14.7543 11.5125 15.2686 12.0794 15.2686 12.771ZM9.93143 11.5125C9.28 11.5125 8.76571 12.0794 8.76571 12.771C8.76571 13.4626 9.29143 14.0295 9.93143 14.0295C10.5829 14.0295 11.0971 13.4626 11.0971 12.771C11.1086 12.0794 10.5829 11.5125 9.93143 11.5125ZM22 4.3356V19.6514C22 20.9485 20.9485 22 19.6514 22V22H17.3029H4.34286C3.05143 22 2 20.9569 2 19.6644V4.3356C2 3.04308 3.05143 2 4.34286 2H19.6571C20.9486 2 22 3.04308 22 4.3356ZM18.7429 15.0839C18.7429 11.4331 17.0971 8.47392 17.0971 8.47392C15.4514 7.24943 13.8857 7.28345 13.8857 7.28345L13.7257 7.46485C15.6686 8.05442 16.5714 8.90476 16.5714 8.90476C13.8567 7.42867 10.6677 7.4284 8.03429 8.57596C7.61143 8.76871 7.36 8.90476 7.36 8.90476C7.36 8.90476 8.30857 8.00907 10.3657 7.4195L10.2514 7.28345C10.2514 7.28345 8.68571 7.24943 7.04 8.47392C7.04 8.47392 5.39429 11.4331 5.39429 15.0839C5.39429 15.0839 6.35429 16.7279 8.88 16.8073C8.88 16.8073 9.30286 16.2971 9.64571 15.8662C8.19429 15.4354 7.64571 14.5283 7.64571 14.5283C7.81384 14.6451 8.09107 14.7964 8.11429 14.8118C10.0433 15.8835 12.7834 16.2346 15.2457 15.2086C15.6457 15.0612 16.0914 14.8458 16.56 14.5397C16.56 14.5397 15.9886 15.4694 14.4914 15.8889C14.8343 16.3197 15.2457 16.8073 15.2457 16.8073C17.7714 16.7279 18.7429 15.0839 18.7429 15.0839Z" fill="#5562EA"/>
</svg>
