<?xml version="1.0" standalone="no"?><!DOCTYPE svg PUBLIC "-//W3C//DTD SVG 1.1//EN" "http://www.w3.org/Graphics/SVG/1.1/DTD/svg11.dtd"><svg t="1714967130954" class="icon" viewBox="0 0 1024 1024" version="1.1" xmlns="http://www.w3.org/2000/svg" p-id="11971" width="20" height="20" xmlns:xlink="http://www.w3.org/1999/xlink"><path d="M504.2 902.7c-14.7 0-29-6.1-39.3-16.7L386 804c-2.4-2.4-10.1-5.7-13.5-5.7H183.6c-66.3 0-120.3-53.9-120.3-120.1V241c0-66.2 53.9-120.1 120.1-120.1h655.8c66.2 0 120.1 53.9 120.1 120.1v437.2c0 66.2-53.8 120.1-120 120.1H641c-3.5 0-11.9 3.4-14.4 5.9l-84.3 82.9c-10.3 10.1-23.8 15.6-38.1 15.6zM183.4 186.5c-30.1 0-54.5 24.5-54.5 54.6v437.2c0 30.1 24.6 54.6 54.7 54.6h188.9c21.1 0 46.1 10.6 60.8 25.8l71.1 73.9 76.2-75c14.8-14.6 39.6-24.7 60.4-24.7h198.2c30 0 54.5-24.5 54.5-54.6V241c0-30.1-24.5-54.6-54.5-54.6H183.4z" fill="#2e8555" p-id="11972"></path><path d="M517 274.5c-38.8 0-69.2 11-91.2 33.6-22 22-33 51.9-33 90.2h55.1c0-23.1 4.7-40.9 14.2-53.5 10.5-15.2 27.8-22.6 51.4-22.6 18.9 0 34.1 5.2 44.6 15.7 10 10.5 15.2 24.6 15.2 43 0 13.6-5.2 26.2-14.7 38.3l-8.9 10c-32.5 28.8-52.4 50.3-59.3 65-7.3 13.6-10.5 30.4-10.5 49.8v8.9H536V544c0-12.6 2.6-24.1 8.4-34.6 4.7-9.4 12.1-18.9 22-27.3 24.6-21.5 39.3-35.1 44.1-40.9 13.1-16.8 19.9-38.3 19.9-64 0-31.5-10.5-56.6-31.5-75-21-18.8-48.3-27.7-81.9-27.7z m-9.4 306.8c-10.5 0-19.9 3.1-27.3 10.5-7.3 6.8-11 15.7-11 26.7 0 10.5 3.7 19.4 11 26.7s16.8 11 27.3 11 19.9-3.7 27.3-10.5c7.3-7.3 11.5-16.3 11.5-27.3s-3.7-19.9-11-26.7c-7.3-7.3-16.8-10.4-27.8-10.4z" fill="#2e8555" p-id="11973"></path></svg>