<svg fill="currentColor" viewBox="0 0 40 40" version="1.1" xmlns="http://www.w3.org/2000/svg" p-id="4540"  width="20" height="20"><path d="M861.164679 130.724226H162.873962c-41.73283 0-75.737358 34.120453-75.737358 76.046491V721.050566c0 41.926038 34.004528 76.046491 75.737358 76.046491h253.295095l95.830943 96.178717 95.830943-96.178717h253.333736c41.73283 0 75.679396-34.139774 75.679396-76.046491V206.770717c0-41.926038-33.946566-76.046491-75.679396-76.046491z m17.408 99.424604V697.672453a40.824755 40.824755 0 0 1-40.689509 40.863396H579.680604l-67.661283 68.009057-67.699925-68.009057H186.136151a40.824755 40.824755 0 0 1-40.70883-40.863396V230.14883c0-22.566642 18.258113-40.902038 40.70883-40.902038h651.747019c22.431396 0 40.689509 18.335396 40.689509 40.902038zM302.369811 403.030943h439.411925c14.876981 0 27.049057-12.558491 27.049056-27.995773 0-15.456604-12.172075-28.053736-27.049056-28.053736H302.369811c-14.876981 0-27.010415 12.597132-27.010415 28.053736 0 15.456604 12.114113 28.015094 27.010415 28.015094z m439.411925 93.454491H302.369811c-14.876981 0-27.010415 12.577811-27.010415 28.015094 0 15.437283 12.114113 28.015094 27.010415 28.015095h439.411925c14.876981 0 27.049057-12.577811 27.049056-28.015095 0-15.437283-12.172075-28.015094-27.049056-28.015094z" fill="#2e8555" p-id="4541"></path></svg>
