<svg width="63" height="19" viewBox="0 0 63 19" fill="none" xmlns="http://www.w3.org/2000/svg">
<path d="M1.93792 18.2153H0V9.72373C0 7.53917 1.79699 5.74219 3.98155 5.74219H7.22315C8.10403 5.74219 8.7735 6.44689 8.7735 7.29252V8.9838H3.98155C3.55873 8.9838 3.24161 9.33615 3.24161 9.72373V16.9116C3.24161 17.6163 2.67785 18.2153 1.93792 18.2153Z" fill="#74BC1F"/>
<path d="M31.2871 18.2164H27.3761C25.1915 18.2164 23.3945 16.4195 23.3945 14.2349V9.72483C23.3945 7.54027 25.1915 5.74329 27.3761 5.74329H29.1378C30.0187 5.74329 30.6881 6.44799 30.6881 7.29362V8.9849H27.3408C26.918 8.9849 26.6009 9.33725 26.6009 9.72483V14.1997C26.6009 14.6225 26.9532 14.9396 27.3408 14.9396H31.2519C31.6747 14.9396 31.9918 14.5872 31.9918 14.1997V0H33.6479C34.5287 0 35.1982 0.704698 35.1982 1.55034V14.1997C35.2687 16.4195 33.5069 18.2164 31.2871 18.2164Z" fill="#74BC1F"/>
<path d="M40.4851 6.1358C40.9784 6.73479 43.0221 9.37741 43.4801 9.90593L41.4717 11.9143C40.2737 10.963 37.8425 9.0603 36.6445 8.10895V8.07372L38.7586 5.95963C39.2167 5.50157 39.9566 5.53681 40.3794 6.06533L40.4851 6.1358Z" fill="#74BC1F"/>
<path d="M37.7016 14.909C38.3006 14.4157 40.9432 12.3721 41.4717 11.9141L43.4801 13.9225C42.7402 14.8738 41.4012 16.5651 40.3794 17.8335C39.9918 18.3268 39.2167 18.362 38.7939 17.9392L36.6445 15.7899L37.7016 14.909Z" fill="#74BC1F"/>
<path d="M46.4754 17.6926C45.9821 17.0936 43.9385 14.451 43.4805 13.9225L45.4889 11.9141C46.6868 12.8654 49.118 14.7681 50.316 15.7194V15.7547L48.2019 17.8688C47.7439 18.3268 47.004 18.2916 46.5811 17.7631L46.4754 17.6926Z" fill="#74BC1F"/>
<path d="M49.2238 8.91553C48.6248 9.40882 45.9822 11.4524 45.4537 11.9105L43.4453 9.90211C44.1852 8.986 45.5242 7.29472 46.5107 6.02627C46.9336 5.49775 47.6735 5.46251 48.1668 5.92056L50.2809 8.03466L49.2238 8.91553Z" fill="#74BC1F"/>
<path d="M59.0175 5.74219H53.4504C52.5696 5.74219 51.9001 6.44689 51.9001 7.29252V8.9838H59.0175C59.4404 8.9838 59.7575 9.33615 59.7575 9.72373V14.1986C59.7575 14.6214 59.4051 14.9385 59.0175 14.9385H55.2826C54.7894 14.9385 54.3665 14.5509 54.3665 14.0224C54.3665 13.5291 54.7541 13.1063 55.2826 13.1063H58.4538V11.8731C58.4538 11.2388 57.9253 10.7103 57.291 10.7103H54.8598C52.8162 10.7103 51.1602 12.3663 51.1602 14.41C51.1602 16.4536 52.8162 18.1096 54.8598 18.1096H59.0175C61.2021 18.1096 62.9991 16.3127 62.9991 14.1281V9.72373C62.9991 7.53917 61.2373 5.74219 59.0175 5.74219Z" fill="#74BC1F"/>
<path d="M17.4394 5.74219H11.8723C10.9914 5.74219 10.322 6.44689 10.322 7.29252V8.9838H17.4394C17.8622 8.9838 18.1793 9.33615 18.1793 9.72373V14.1986C18.1793 14.6214 17.827 14.9385 17.4394 14.9385H13.7045C13.2112 14.9385 12.7884 14.5509 12.7884 14.0224C12.7884 13.5291 13.176 13.1063 13.7045 13.1063H16.8757V11.8731C16.8757 11.2388 16.3471 10.7103 15.7129 10.7103H13.2817C11.2381 10.7103 9.58203 12.3663 9.58203 14.41C9.58203 16.4536 11.2381 18.1096 13.2817 18.1096H17.4394C19.624 18.1096 21.421 16.3127 21.421 14.1281V9.72373C21.421 7.53917 19.6592 5.74219 17.4394 5.74219Z" fill="#74BC1F"/>
</svg>
