<svg width="150" height="50" viewBox="0 0 150 50" fill="none" xmlns="http://www.w3.org/2000/svg">
<g clip-path="url(#clip0_20339_10683)">
<path d="M4.27206 44.9998H0V26.3617C0 24.036 0.923619 21.8056 2.56767 20.1611C4.21173 18.5166 6.44154 17.5928 8.76658 17.5928H15.8812C16.7957 17.5928 17.6727 17.9562 18.3194 18.603C18.966 19.2498 19.3293 20.1271 19.3293 21.0418V24.7134H8.76658C8.32955 24.7134 7.91041 24.8871 7.60137 25.1962C7.29234 25.5053 7.11873 25.9245 7.11873 26.3617V42.1524C7.11764 42.9072 6.81737 43.6308 6.28376 44.1646C5.75014 44.6984 5.02671 44.9987 4.27206 44.9998Z" fill="#74BC1F"/>
<path d="M68.7968 45H60.2156C59.0645 45 57.9248 44.7732 56.8614 44.3324C55.798 43.8917 54.8319 43.2457 54.0181 42.4314C53.2044 41.6171 52.5591 40.6504 52.1189 39.5865C51.6788 38.5226 51.4526 37.3824 51.4531 36.2311V26.3413C51.4526 25.1899 51.6788 24.0498 52.1189 22.9859C52.5591 21.922 53.2044 20.9553 54.0181 20.141C54.8319 19.3267 55.798 18.6807 56.8614 18.2399C57.9248 17.7992 59.0645 17.5724 60.2156 17.5724H64.1045C64.5599 17.5707 65.0111 17.6594 65.432 17.8334C65.8529 18.0073 66.2352 18.263 66.5566 18.5857C66.878 18.9084 67.1323 19.2916 67.3047 19.7133C67.4771 20.1349 67.5642 20.5865 67.5609 21.042V24.7136H60.2279C59.7909 24.7136 59.3718 24.8873 59.0627 25.1964C58.7537 25.5055 58.5801 25.9247 58.5801 26.3619V36.2517C58.5801 36.6888 58.7537 37.1081 59.0627 37.4172C59.3718 37.7263 59.7909 37.9 60.2279 37.9H68.7968C69.2338 37.9 69.653 37.7263 69.962 37.4172C70.271 37.1081 70.4446 36.6888 70.4446 36.2517V5H74.1152C75.0297 5 75.9068 5.36338 76.5534 6.01021C77.2001 6.65703 77.5634 7.53431 77.5634 8.44906V36.2311C77.5639 37.3828 77.3375 38.5233 76.8972 39.5874C76.4568 40.6516 75.8111 41.6185 74.9969 42.4328C74.1827 43.2472 73.2161 43.8931 72.1523 44.3336C71.0884 44.7741 69.9482 45.0005 68.7968 45Z" fill="#74BC1F"/>
<path d="M88.9473 18.4381L95.5387 26.7578L91.1472 31.1423L80.5432 22.7484C80.537 22.7426 80.532 22.7356 80.5286 22.7278C80.5252 22.72 80.5234 22.7115 80.5234 22.703C80.5234 22.6945 80.5252 22.6861 80.5286 22.6783C80.532 22.6705 80.537 22.6635 80.5432 22.6577L85.2149 17.9807C85.4509 17.7441 85.7344 17.5602 86.0467 17.4412C86.3589 17.3222 86.6928 17.2707 87.0264 17.2901C87.36 17.3096 87.6857 17.3996 87.982 17.5541C88.2783 17.7087 88.5385 17.9243 88.7454 18.1867L88.9473 18.4381Z" fill="#74BC1F"/>
<path d="M82.8321 37.7231L91.1497 31.1299L95.533 35.5143C93.8851 37.5747 90.9478 41.2834 88.7438 44.0937C88.537 44.3545 88.2773 44.5685 87.982 44.7218C87.6866 44.8751 87.3622 44.9642 87.03 44.9833C86.6977 45.0023 86.3653 44.9509 86.0543 44.8324C85.7433 44.7139 85.4609 44.531 85.2256 44.2956L80.4922 39.5733L82.8321 37.7231Z" fill="#74BC1F"/>
<path d="M102.107 43.8417L95.5156 35.5261L99.8989 31.1416L110.511 39.5314C110.517 39.5376 110.522 39.5449 110.526 39.5531C110.529 39.5612 110.531 39.57 110.531 39.5788C110.531 39.5877 110.529 39.5964 110.526 39.6045C110.522 39.6127 110.517 39.6201 110.511 39.6262L105.839 44.3032C105.603 44.5392 105.319 44.7226 105.007 44.8412C104.695 44.9599 104.361 45.0111 104.028 44.9917C103.695 44.9722 103.369 44.8825 103.073 44.7283C102.777 44.5742 102.516 44.3591 102.309 44.0972L102.107 43.8417Z" fill="#74BC1F"/>
<path d="M108.224 24.5573L99.9067 31.1504L95.5234 26.7577L102.267 18.2402C102.474 17.9643 102.739 17.737 103.043 17.5739C103.347 17.4108 103.683 17.316 104.027 17.296C104.371 17.276 104.716 17.3313 105.037 17.4581C105.357 17.5848 105.647 17.78 105.884 18.03L110.56 22.7194L108.224 24.5573Z" fill="#74BC1F"/>
<path d="M129.766 17.5928H117.514C116.599 17.5928 115.722 17.9562 115.076 18.603C114.429 19.2498 114.066 20.1271 114.066 21.0418V24.7134H129.766C130.203 24.7134 130.622 24.8871 130.931 25.1962C131.24 25.5053 131.413 25.9245 131.413 26.3617V36.2515C131.413 36.6886 131.24 37.1079 130.931 37.417C130.622 37.7261 130.203 37.8998 129.766 37.8998H121.526C121.259 37.912 120.993 37.8699 120.742 37.7761C120.492 37.6823 120.263 37.5387 120.07 37.3541C119.877 37.1694 119.723 36.9474 119.618 36.7016C119.513 36.4558 119.459 36.1912 119.459 35.9239C119.459 35.6565 119.513 35.392 119.618 35.1461C119.723 34.9003 119.877 34.6784 120.07 34.4937C120.263 34.309 120.492 34.1654 120.742 34.0716C120.993 33.9779 121.259 33.9358 121.526 33.948H128.53V31.2489C128.529 30.5644 128.256 29.9083 127.772 29.4246C127.287 28.941 126.631 28.6693 125.947 28.6693H120.591C118.458 28.7173 116.428 29.5986 114.936 31.1246C113.445 32.6507 112.609 34.7002 112.609 36.8346C112.609 38.9689 113.445 41.0184 114.936 42.5445C116.428 44.0705 118.458 44.9519 120.591 44.9998H129.766C132.091 44.9998 134.32 44.0759 135.964 42.4314C137.608 40.7869 138.532 38.5565 138.532 36.2309V26.3411C138.527 24.019 137.601 21.7939 135.957 20.1538C134.314 18.5138 132.087 17.5928 129.766 17.5928Z" fill="#74BC1F"/>
<path d="M38.312 17.5928H26.0973C25.1842 17.595 24.3093 17.9593 23.6644 18.6059C23.0195 19.2525 22.6574 20.1285 22.6574 21.0418V24.7134H38.312C38.749 24.7134 39.1682 24.8871 39.4772 25.1962C39.7862 25.5053 39.9598 25.9245 39.9598 26.3617V36.2515C39.9598 36.6886 39.7862 37.1079 39.4772 37.417C39.1682 37.7261 38.749 37.8998 38.312 37.8998H30.0727C29.8057 37.912 29.539 37.8699 29.2887 37.7761C29.0385 37.6823 28.8098 37.5387 28.6165 37.3541C28.4233 37.1694 28.2694 36.9474 28.1643 36.7016C28.0593 36.4558 28.0051 36.1912 28.0051 35.9239C28.0051 35.6565 28.0593 35.392 28.1643 35.1461C28.2694 34.9003 28.4233 34.6784 28.6165 34.4937C28.8098 34.309 29.0385 34.1654 29.2887 34.0716C29.539 33.9779 29.8057 33.9358 30.0727 33.948H37.0761V31.2489C37.075 30.5644 36.8024 29.9083 36.3181 29.4246C35.8338 28.941 35.1774 28.6693 34.4931 28.6693H29.1376C28.0502 28.6449 26.9688 28.838 25.957 29.2374C24.9453 29.6367 24.0235 30.2343 23.2458 30.9949C22.4681 31.7555 21.8501 32.6639 21.4283 33.6667C21.0064 34.6696 20.7891 35.7466 20.7891 36.8346C20.7891 37.9225 21.0064 38.9996 21.4283 40.0024C21.8501 41.0052 22.4681 41.9136 23.2458 42.6742C24.0235 43.4348 24.9453 44.0324 25.957 44.4317C26.9688 44.8311 28.0502 45.0242 29.1376 44.9998H38.312C39.463 44.9998 40.6028 44.773 41.6662 44.3322C42.7296 43.8915 43.6957 43.2455 44.5094 42.4312C45.3232 41.6169 45.9685 40.6502 46.4086 39.5863C46.8487 38.5224 47.075 37.3822 47.0745 36.2309V26.3411C47.0701 24.0194 46.145 21.7943 44.5022 20.1541C42.8594 18.5139 40.6331 17.5928 38.312 17.5928Z" fill="#74BC1F"/>
<path d="M150.001 16.4966C150.002 17.4023 149.737 18.2883 149.237 19.0441C148.738 19.7998 148.028 20.3917 147.194 20.746C146.361 21.1003 145.442 21.2013 144.551 21.0363C143.661 20.8713 142.839 20.4477 142.188 19.8183C141.537 19.1889 141.085 18.3817 140.89 17.4973C140.694 16.6129 140.764 15.6905 141.089 14.8453C141.415 14 141.982 13.2694 142.72 12.7445C143.458 12.2196 144.334 11.9237 145.239 11.8937C145.856 11.875 146.47 11.9801 147.046 12.2028C147.621 12.4254 148.147 12.7612 148.591 13.1902C149.035 13.6192 149.388 14.1328 149.63 14.7007C149.872 15.2685 149.999 15.8792 150.001 16.4966ZM141.379 16.4966C141.365 17.0347 141.46 17.57 141.657 18.0708C141.854 18.5715 142.15 19.0276 142.527 19.4118C142.904 19.796 143.354 20.1006 143.851 20.3074C144.347 20.5142 144.881 20.6191 145.419 20.6158C145.957 20.6124 146.489 20.501 146.983 20.2881C147.477 20.0752 147.924 19.7651 148.296 19.3763C148.668 18.9874 148.958 18.5278 149.149 18.0246C149.34 17.5214 149.428 16.985 149.408 16.4471C149.402 15.9185 149.292 15.3962 149.084 14.9106C148.875 14.4249 148.572 13.9855 148.192 13.6179C147.812 13.2503 147.363 12.9618 146.871 12.7691C146.379 12.5764 145.854 12.4833 145.325 12.4954C144.276 12.522 143.279 12.9549 142.542 13.7028C141.806 14.4507 141.389 15.4553 141.379 16.5048V16.4966Z" fill="#74BC1F"/>
<path d="M144.523 16.7935V19.0105H143.547V13.806H143.662C144.346 13.806 145.026 13.806 145.722 13.806C146.136 13.7999 146.547 13.8784 146.929 14.0368C147.215 14.1465 147.45 14.3586 147.589 14.632C147.727 14.9053 147.759 15.2204 147.679 15.5161C147.636 15.7921 147.507 16.0475 147.31 16.2458C147.113 16.4441 146.859 16.5752 146.583 16.6205H146.538L146.517 16.6411L147.662 19.0105C147.304 19.0105 146.958 19.0105 146.612 19.0105C146.579 19.0105 146.538 18.961 146.517 18.9239C146.258 18.3841 146.002 17.8402 145.743 17.3004C145.673 17.152 145.607 17.0037 145.528 16.8595C145.518 16.8411 145.504 16.8253 145.487 16.8132C145.47 16.8011 145.45 16.7929 145.43 16.7894C145.133 16.7894 144.836 16.7935 144.523 16.7935ZM144.523 14.4365V16.1713C144.791 16.1713 145.051 16.1713 145.31 16.1713C145.529 16.1685 145.748 16.1534 145.965 16.126C146.074 16.117 146.18 16.0865 146.277 16.0363C146.374 15.9861 146.459 15.9171 146.529 15.8334C146.616 15.7224 146.672 15.5912 146.694 15.4522C146.715 15.3132 146.7 15.171 146.651 15.0393C146.602 14.9075 146.52 14.7905 146.413 14.6994C146.306 14.6084 146.177 14.5462 146.039 14.5189C145.54 14.438 145.033 14.4104 144.527 14.4365H144.523Z" fill="#74BC1F"/>
</g>
<defs>
<clipPath id="clip0_20339_10683">
<rect width="150" height="40" fill="white" transform="translate(0 5)"/>
</clipPath>
</defs>
</svg>
