<svg width="24" height="25" viewBox="0 0 24 25" fill="none" xmlns="http://www.w3.org/2000/svg">
<path d="M15.5954 13.3481C15.5954 14.1088 15.0297 14.7324 14.3131 14.7324C13.6091 14.7324 13.0309 14.1088 13.0309 13.3481C13.0309 12.5873 13.5966 11.9637 14.3131 11.9637C15.0297 11.9637 15.5954 12.5873 15.5954 13.3481ZM9.72457 11.9637C9.008 11.9637 8.44229 12.5873 8.44229 13.3481C8.44229 14.1088 9.02057 14.7324 9.72457 14.7324C10.4411 14.7324 11.0069 14.1088 11.0069 13.3481C11.0194 12.5873 10.4411 11.9637 9.72457 11.9637ZM23 4.06916V20.9166C23 22.3434 21.8434 23.5 20.4166 23.5H17.8331H3.57714C2.15657 23.5 1 22.3526 1 20.9308V4.06916C1 2.64739 2.15657 1.5 3.57714 1.5H20.4229C21.8434 1.5 23 2.64739 23 4.06916ZM19.4171 15.8923C19.4171 11.8764 17.6069 8.62131 17.6069 8.62131C15.7966 7.27438 14.0743 7.31179 14.0743 7.31179L13.8983 7.51134C16.0354 8.15986 17.0286 9.09524 17.0286 9.09524C14.0423 7.47154 10.5344 7.47124 7.63771 8.73356C7.17257 8.94558 6.896 9.09524 6.896 9.09524C6.896 9.09524 7.93943 8.10998 10.2023 7.46145L10.0766 7.31179C10.0766 7.31179 8.35429 7.27438 6.544 8.62131C6.544 8.62131 4.73371 11.8764 4.73371 15.8923C4.73371 15.8923 5.78971 17.7007 8.568 17.788C8.568 17.788 9.03314 17.2268 9.41029 16.7528C7.81371 16.2789 7.21029 15.2812 7.21029 15.2812C7.39522 15.4096 7.70018 15.5761 7.72571 15.593C9.84763 16.7718 12.8617 17.1581 15.5703 16.0295C16.0103 15.8673 16.5006 15.6304 17.016 15.2936C17.016 15.2936 16.3874 16.3163 14.7406 16.7778C15.1177 17.2517 15.5703 17.788 15.5703 17.788C18.3486 17.7007 19.4171 15.8923 19.4171 15.8923Z" fill="white"/>
</svg>
