<svg width="24" height="25" viewBox="0 0 24 25" fill="none" xmlns="http://www.w3.org/2000/svg">
<g clip-path="url(#clip0_7751_27868)">
<path d="M11.6277 1.29297C11.6377 1.29297 11.6477 1.29297 11.6627 1.29297C11.6977 1.30797 11.7327 1.29797 11.7727 1.30297C11.8127 1.30297 11.8477 1.30297 11.8877 1.30297C11.9727 1.30297 12.0577 1.30297 12.1427 1.30297C12.1827 1.30297 12.2227 1.30297 12.2627 1.30297C12.2977 1.30297 12.3277 1.30297 12.3627 1.30297C13.4227 1.30297 14.4127 1.57297 15.3377 2.08297C15.8827 2.38297 16.3677 2.76797 16.7927 3.21797C17.2027 3.64797 17.5427 4.13297 17.8277 4.65297C18.4227 5.73797 18.7627 6.90297 18.9327 8.12297C18.9827 8.49297 19.0177 8.86797 19.0377 9.23797C19.0627 9.68297 19.0427 10.128 19.0527 10.568C19.0527 10.598 19.0527 10.628 19.0377 10.658C19.0227 10.718 18.9727 10.728 18.9227 10.743C18.5277 10.858 18.1277 10.958 17.7277 11.043C16.9977 11.203 16.2577 11.338 15.5177 11.438C15.0127 11.503 14.5027 11.563 13.9927 11.603C13.6077 11.633 13.2177 11.653 12.8327 11.673C12.3427 11.698 11.8527 11.693 11.3677 11.683C10.9327 11.673 10.4977 11.643 10.0627 11.608C9.2977 11.548 8.5327 11.458 7.7777 11.333C6.8927 11.188 6.0127 11.003 5.1527 10.758C5.0977 10.743 5.03771 10.728 5.01271 10.668C4.99271 10.638 4.9927 10.603 4.9927 10.573C4.9927 10.178 4.9777 9.77797 4.9977 9.38297C5.0277 8.64297 5.1177 7.91297 5.2777 7.19297C5.4327 6.49797 5.6527 5.82297 5.9527 5.17797C6.2377 4.55797 6.5977 3.98297 7.0427 3.46297C7.4127 3.02797 7.8327 2.65297 8.3077 2.33297C8.8627 1.96297 9.4627 1.69297 10.1027 1.52297C10.4827 1.42297 10.8627 1.34797 11.2577 1.31797C11.3627 1.30297 11.4977 1.30797 11.6277 1.29297Z" fill="white"/>
<path d="M21.4112 18.9891C21.3762 19.0841 21.3862 19.1891 21.3612 19.2891C21.3412 19.3841 21.3162 19.4791 21.2712 19.5641C21.2162 19.6691 21.1512 19.6891 21.0412 19.6441C20.8712 19.5691 20.7412 19.4391 20.6162 19.3091C20.1862 18.8441 19.8262 18.3241 19.4762 17.7991C19.3862 17.6641 19.3012 17.5291 19.2062 17.3791C19.1912 17.5741 19.1862 17.7541 19.1612 17.9291C19.0862 18.5141 18.9112 19.0691 18.6612 19.5991C18.2612 20.4491 17.7012 21.1791 16.9862 21.7891C16.9812 21.7941 16.9812 21.7991 16.9762 21.8041C16.9712 21.8391 16.9462 21.8541 16.9212 21.8741C16.1312 22.5241 15.2312 22.9641 14.2462 23.2291C13.8062 23.3441 13.3562 23.4241 12.9062 23.4691C12.6162 23.4991 12.3262 23.5141 12.0412 23.4891C12.0112 23.4891 11.9862 23.4891 11.9562 23.4891C11.6312 23.5141 11.3112 23.4941 10.9862 23.4591C10.4012 23.3941 9.82623 23.2791 9.26623 23.0891C8.46623 22.8191 7.73623 22.4241 7.08123 21.8891C7.05123 21.8641 7.02123 21.8491 7.01123 21.8091C6.68123 21.5191 6.37123 21.2041 6.09623 20.8541C5.48123 20.0691 5.06123 19.1891 4.86623 18.2091C4.81623 17.9641 4.79123 17.7141 4.78623 17.4591C4.78623 17.4391 4.78123 17.4191 4.78123 17.3991C4.75123 17.4141 4.74123 17.4391 4.72623 17.4641C4.35623 18.0391 3.97623 18.6091 3.53123 19.1291C3.39623 19.2891 3.25623 19.4391 3.09123 19.5641C3.04123 19.5991 2.99123 19.6341 2.93123 19.6541C2.83123 19.6891 2.77623 19.6741 2.72123 19.5791C2.65623 19.4641 2.63123 19.3391 2.61123 19.2141C2.54623 18.7341 2.58623 18.2541 2.65123 17.7791C2.84123 16.4191 3.26623 15.1191 3.74123 13.8341C3.82123 13.6241 3.89123 13.4091 3.98623 13.2091C4.02123 13.1891 4.05623 13.2041 4.09123 13.2141C4.86123 13.4441 5.64623 13.6341 6.43123 13.7991C6.48123 13.8091 6.53623 13.8191 6.58623 13.8291C6.62123 13.8341 6.65623 13.8441 6.68123 13.8791C6.70623 14.0041 6.66623 14.1241 6.65123 14.2441C6.62123 14.5241 6.59623 14.7991 6.57123 15.0791C6.53123 15.5891 6.53123 16.0941 6.54123 16.6041C6.56123 17.4841 6.67623 18.3491 6.97123 19.1791C7.20623 19.8391 7.53623 20.4491 8.00123 20.9791C8.71123 21.7841 9.60123 22.2891 10.6512 22.5191C11.0212 22.5991 11.3962 22.6391 11.7712 22.6541C12.3812 22.6791 12.9762 22.6141 13.5612 22.4591C14.2862 22.2691 14.9362 21.9291 15.5012 21.4391C15.9562 21.0441 16.3162 20.5741 16.6062 20.0491C17.0112 19.3041 17.2362 18.5041 17.3412 17.6691C17.3762 17.3891 17.3912 17.1091 17.4112 16.8241C17.4362 16.3941 17.4312 15.9641 17.4212 15.5341C17.4062 15.0241 17.3612 14.5191 17.2862 14.0191C17.2812 13.9791 17.2712 13.9441 17.2812 13.9041C17.2962 13.8441 17.3512 13.8441 17.3962 13.8341C17.9462 13.7241 18.4962 13.5941 19.0362 13.4541C19.3112 13.3841 19.5862 13.3041 19.8612 13.2241C19.9012 13.2141 19.9412 13.1941 19.9862 13.2041C20.0312 13.2241 20.0412 13.2741 20.0562 13.3141C20.1912 13.6591 20.3162 14.0091 20.4412 14.3591C20.6762 15.0091 20.8812 15.6691 21.0512 16.3441C21.1862 16.8641 21.2912 17.3941 21.3562 17.9291C21.3762 18.0741 21.3762 18.2241 21.3812 18.3691C21.3812 18.3941 21.3712 18.4241 21.3912 18.4491C21.3912 18.4941 21.3912 18.5391 21.3912 18.5841C21.3762 18.6791 21.3762 18.7741 21.3912 18.8691C21.4112 18.8991 21.4112 18.9441 21.4112 18.9891Z" fill="white"/>
<path d="M12.1437 1.30797C12.0537 1.30797 11.9637 1.30797 11.8737 1.30797C11.8687 1.30297 11.8687 1.30297 11.8687 1.29797C11.8687 1.29297 11.8737 1.29297 11.8737 1.29297C11.9637 1.29297 12.0537 1.29297 12.1437 1.29297C12.1487 1.29797 12.1487 1.30297 12.1487 1.30297C12.1437 1.30797 12.1437 1.30797 12.1437 1.30797Z" fill="white"/>
<path d="M11.8721 1.29297C11.8721 1.29797 11.8721 1.30297 11.8721 1.30797C11.8321 1.30797 11.7921 1.30797 11.7521 1.30797C11.7471 1.30297 11.7471 1.30297 11.7471 1.29797C11.7471 1.29297 11.7521 1.29297 11.7521 1.29297C11.7921 1.29297 11.8321 1.29297 11.8721 1.29297Z" fill="white"/>
<path d="M12.1406 1.30797C12.1406 1.30297 12.1406 1.29797 12.1406 1.29297C12.1806 1.29297 12.2206 1.29297 12.2556 1.29297C12.2606 1.29297 12.2606 1.29797 12.2606 1.30297C12.2606 1.30797 12.2606 1.30797 12.2556 1.30797C12.2156 1.30797 12.1806 1.30797 12.1406 1.30797Z" fill="white"/>
<path d="M11.7533 1.29297C11.7533 1.29797 11.7533 1.30297 11.7533 1.30797C11.7183 1.30297 11.6833 1.33297 11.6533 1.29297C11.6883 1.29297 11.7233 1.29297 11.7533 1.29297Z" fill="white"/>
<path d="M12.2627 1.30797C12.2627 1.30297 12.2627 1.29797 12.2627 1.29297C12.2977 1.29297 12.3277 1.29297 12.3627 1.29297C12.3627 1.29797 12.3627 1.30297 12.3627 1.30797C12.3327 1.30797 12.2977 1.30797 12.2627 1.30797Z" fill="white"/>
<path d="M19.0029 10.6847C19.2529 11.3147 19.5079 11.9447 19.7579 12.5747C19.8429 12.7847 19.9229 12.9947 20.0029 13.2047C19.1279 13.4647 18.2479 13.6797 17.3529 13.8597C17.3379 13.8647 17.3179 13.8647 17.3079 13.8797C17.2879 13.9047 17.2529 13.9097 17.2229 13.9147C16.3629 14.0847 15.4929 14.2147 14.6229 14.3097C14.1879 14.3597 13.7479 14.3947 13.3129 14.4197C13.1479 14.4297 12.9829 14.4447 12.8179 14.4397C12.5079 14.4347 12.1979 14.4647 11.8879 14.4547C11.5629 14.4447 11.2329 14.4397 10.9079 14.4247C10.6629 14.4147 10.7029 14.4097 10.7029 14.6197C10.7029 15.4897 10.7029 16.3647 10.7029 17.2347C10.7029 17.4147 10.6929 17.4197 10.5129 17.4447C10.0329 17.5047 9.55293 17.5047 9.07293 17.4897C8.61293 17.4747 8.15793 17.4247 7.70793 17.3497C7.57793 17.3297 7.56293 17.3097 7.56293 17.1697C7.56293 16.3197 7.56293 15.4647 7.56293 14.6147C7.56293 14.4597 7.56293 14.3097 7.56293 14.1547C7.56293 14.0847 7.53793 14.0547 7.46793 14.0397C7.24293 13.9997 7.02293 13.9647 6.80293 13.9147C6.76793 13.9047 6.72293 13.9047 6.69793 13.8697C6.45793 13.8197 6.21793 13.7647 5.98293 13.7147C5.31793 13.5647 4.65793 13.3947 4.00293 13.1997C4.14793 12.8297 4.29793 12.4547 4.44293 12.0847C4.61793 11.6447 4.79793 11.1997 4.97293 10.7597C4.98293 10.7347 4.99293 10.7097 5.00293 10.6797C5.21293 10.7597 5.42793 10.8097 5.64293 10.8647C6.33793 11.0447 7.04293 11.1847 7.75293 11.2997C8.32293 11.3947 8.89293 11.4647 9.46793 11.5247C10.4629 11.6247 11.4629 11.6747 12.4629 11.6547C13.0329 11.6447 13.6029 11.6097 14.1679 11.5597C14.8279 11.5047 15.4829 11.4247 16.1329 11.3197C17.0779 11.1697 18.0129 10.9747 18.9279 10.7097C18.9579 10.7047 18.9829 10.6947 19.0029 10.6847Z" fill="white"/>
<path d="M12.0066 8.19218C12.6966 8.18718 13.3666 8.22718 14.0366 8.31218C14.6216 8.38718 15.1966 8.49218 15.7516 8.69718C15.8866 8.74718 16.0166 8.80218 16.1316 8.88718C16.1616 8.91218 16.1916 8.93718 16.2216 8.96218C16.3066 9.05718 16.3016 9.13218 16.2066 9.21218C16.0416 9.34718 15.8566 9.44718 15.6666 9.54218C14.7966 9.97718 13.8866 10.2772 12.9216 10.4122C12.1916 10.5172 11.4616 10.4922 10.7416 10.3522C9.79157 10.1672 8.89157 9.85718 8.05157 9.37718C7.96157 9.32718 7.87157 9.27218 7.79657 9.20218C7.70657 9.12218 7.70157 9.05218 7.78157 8.96218C7.84157 8.89218 7.91657 8.84718 7.99657 8.80218C8.29657 8.64718 8.61657 8.55718 8.94157 8.48218C9.51657 8.34718 10.1016 8.27218 10.6916 8.22718C11.1366 8.20718 11.5816 8.18718 12.0066 8.19218Z" fill="white"/>
<path d="M15.0721 5.83643C15.0621 6.33143 14.9471 6.80643 14.6321 7.20643C14.4571 7.43143 14.2371 7.59643 13.9471 7.63643C13.6021 7.68643 13.3271 7.55143 13.0971 7.30143C12.8321 7.01643 12.7021 6.66643 12.6471 6.28643C12.5771 5.79143 12.6321 5.30643 12.8571 4.85143C12.9721 4.61643 13.1321 4.41143 13.3521 4.26143C13.7171 4.01643 14.1421 4.04143 14.4721 4.32643C14.7821 4.59143 14.9371 4.94643 15.0171 5.33643C15.0571 5.50143 15.0671 5.66643 15.0721 5.83643Z" fill="white"/>
<path d="M11.3859 5.90991C11.3859 6.37991 11.2809 6.81491 10.9959 7.19991C10.8259 7.42491 10.6109 7.58991 10.3259 7.63491C10.0209 7.68491 9.76587 7.57991 9.54087 7.37991C9.24087 7.10991 9.07587 6.75991 8.99587 6.36991C8.87587 5.80491 8.92587 5.25491 9.20087 4.73991C9.29087 4.56991 9.41587 4.41991 9.57087 4.29991C9.95587 4.00491 10.4309 4.03491 10.7909 4.37491C11.0859 4.64991 11.2459 4.99491 11.3309 5.38491C11.3709 5.55491 11.3909 5.72991 11.3859 5.90991Z" fill="white"/>
<path d="M7.03253 21.8047C7.36253 22.0697 7.70253 22.3147 8.07253 22.5197C8.81253 22.9347 9.59753 23.2047 10.4325 23.3497C10.9425 23.4397 11.4575 23.4797 11.9725 23.4847C11.7525 23.5047 11.5325 23.5297 11.3175 23.5447C10.4325 23.6047 9.54253 23.6397 8.65753 23.6547C7.99253 23.6647 7.32753 23.6597 6.66253 23.6297C6.24253 23.6097 5.82253 23.5797 5.40753 23.4847C5.35253 23.4697 5.30253 23.4547 5.24753 23.4397C4.99753 23.3697 4.96253 23.1647 5.02253 22.9697C5.06753 22.8197 5.16753 22.7147 5.28753 22.6197C5.56753 22.3997 5.88753 22.2447 6.21753 22.1097C6.47753 21.9947 6.75253 21.9047 7.03253 21.8047Z" fill="white"/>
<path d="M12.0469 23.4886C12.3069 23.4836 12.5719 23.4736 12.8319 23.4536C14.1919 23.3336 15.4469 22.9286 16.5669 22.1286C16.7119 22.0286 16.8469 21.9136 16.9869 21.8086C17.3319 21.9236 17.6719 22.0436 18.0019 22.1936C18.2569 22.3136 18.5069 22.4436 18.7319 22.6186C18.8769 22.7336 18.9919 22.8686 19.0219 23.0636C19.0469 23.2386 18.9819 23.3586 18.8219 23.4236C18.6069 23.5136 18.3769 23.5436 18.1469 23.5736C17.3319 23.6686 16.5069 23.6736 15.6869 23.6686C14.9669 23.6636 14.2469 23.6436 13.5269 23.6036C13.0419 23.5786 12.5569 23.5436 12.0719 23.5036C12.0619 23.4936 12.0569 23.4886 12.0469 23.4886Z" fill="white"/>
<path d="M6.70771 13.8711C6.99271 13.9211 7.27771 13.9761 7.56271 14.0261C7.59271 14.0311 7.59771 14.0461 7.59771 14.0711C7.59771 14.0911 7.59771 14.1111 7.59771 14.1311C7.59771 15.1511 7.59771 16.1711 7.59771 17.1911C7.59771 17.2761 7.61771 17.3061 7.70771 17.3211C8.40271 17.4361 9.09771 17.4861 9.80271 17.4661C10.0727 17.4611 10.3427 17.4361 10.6127 17.4061C10.6777 17.3961 10.6927 17.3761 10.6927 17.3161C10.6927 16.5361 10.6927 15.7561 10.6927 14.9761C10.6927 14.8061 10.6977 14.6361 10.6927 14.4661C10.6927 14.4061 10.7077 14.3911 10.7677 14.3961C11.4677 14.4311 12.1677 14.4361 12.8727 14.4161C13.5477 14.3961 14.2227 14.3361 14.8927 14.2561C15.6877 14.1611 16.4777 14.0411 17.2677 13.8811C17.2877 13.8761 17.3077 13.8811 17.3277 13.8811C17.4027 14.3461 17.4477 14.8161 17.4727 15.2861C17.5027 15.8311 17.4977 16.3761 17.4727 16.9211C17.4127 18.1161 17.1627 19.2561 16.5327 20.2861C15.7977 21.4861 14.7377 22.2261 13.3677 22.5361C12.7177 22.6811 12.0627 22.7111 11.4027 22.6511C10.4477 22.5611 9.56771 22.2661 8.78771 21.6911C8.00771 21.1161 7.46271 20.3561 7.09771 19.4611C6.84271 18.8361 6.69271 18.1911 6.62271 17.5211C6.54271 16.7511 6.53771 15.9761 6.57771 15.2011C6.58771 14.7511 6.63271 14.3111 6.70771 13.8711Z" fill="white"/>
<path d="M13.8843 5.55859C14.0843 5.56859 14.2843 5.59859 14.4693 5.69359C14.6343 5.77859 14.6543 5.96359 14.5143 6.08359C14.4443 6.14359 14.3743 6.13859 14.2993 6.09859C14.1643 6.02359 14.0193 5.97359 13.8643 5.96359C13.5943 5.94859 13.3743 6.05359 13.1893 6.23859C13.0993 6.32859 13.0443 6.33859 12.9743 6.28359C12.8993 6.21859 12.8843 6.12359 12.9543 6.02859C13.1843 5.71359 13.4993 5.56859 13.8843 5.55859Z" fill="white"/>
<path d="M10.0029 5.98998C10.0029 5.82498 10.0479 5.65998 10.1529 5.51498C10.3479 5.24498 10.6729 5.23498 10.8879 5.48498C11.1329 5.76498 11.1279 6.26498 10.8829 6.54498C10.6829 6.77498 10.3829 6.76998 10.1879 6.53998C10.0579 6.38498 10.0029 6.19998 10.0029 5.98998Z" fill="white"/>
</g>
<defs>
<clipPath id="clip0_7751_27868">
<rect width="24" height="24" fill="white" transform="translate(0 0.5)"/>
</clipPath>
</defs>
</svg>
