<svg width="300" height="35" viewBox="0 0 300 35" fill="none" xmlns="http://www.w3.org/2000/svg">
<path d="M3.7291 34.9492H0V18.6786C0 14.4517 3.42674 11.0243 7.65368 11.0243H13.8679C15.5299 11.0243 16.8773 12.3724 16.8773 14.0344V17.2399H7.65368C6.85956 17.2399 6.21561 17.8839 6.21561 18.6786V32.4627C6.21561 33.8358 5.10223 34.9492 3.7291 34.9492Z" fill="#74BC1F"/>
<path d="M60.0744 34.9492H52.5919C48.3642 34.9492 44.9375 31.5225 44.9375 27.2955V18.6786C44.9375 14.4517 48.3642 11.0243 52.5919 11.0243H55.9848C57.6467 11.0243 58.9948 12.3724 58.9948 14.0344V17.2399H52.5919C51.7971 17.2399 51.1531 17.8839 51.1531 18.6786V27.2955C51.1531 28.0897 51.7971 28.7336 52.5919 28.7336H60.0744C60.8685 28.7336 61.5125 28.0897 61.5125 27.2955V0.0297852H64.7187C66.3806 0.0297852 67.7281 1.37721 67.7281 3.03985V27.2955C67.7281 31.5225 64.3013 34.9492 60.0744 34.9492Z" fill="#74BC1F"/>
<path d="M77.6781 11.7584C78.6041 12.928 82.5814 17.9551 83.4249 19.0205L79.5984 22.8477C77.3121 21.0382 72.6509 17.3497 70.341 15.5214C70.3139 15.5004 70.3139 15.4652 70.3383 15.4409L74.4211 11.358C75.295 10.4841 76.7358 10.568 77.5029 11.5373L77.6781 11.7584Z" fill="#74BC1F"/>
<path d="M72.3305 28.5975C73.5 27.6715 78.5272 23.6941 79.5925 22.8506L83.4197 26.6771C81.9986 28.4724 79.4194 31.732 77.4916 34.1685C76.7265 35.1351 75.2912 35.2163 74.42 34.3443L70.2891 30.2135L72.3305 28.5975Z" fill="#74BC1F"/>
<path d="M89.1609 33.9437C88.2349 32.7741 84.2569 27.747 83.4141 26.6816L87.2406 22.8545C89.5269 24.6639 94.1881 28.3524 96.498 30.1808C96.5251 30.2017 96.5251 30.2369 96.5007 30.2612L92.4179 34.3441C91.5439 35.218 90.1032 35.1342 89.3361 34.1649L89.1609 33.9437Z" fill="#74BC1F"/>
<path d="M94.5033 17.1008C93.3337 18.0268 88.3066 22.0042 87.2412 22.8477L83.4141 19.0212C84.8251 17.2388 87.3772 14.013 89.3003 11.5833C90.1133 10.5551 91.5351 10.4753 92.4625 11.402L96.5447 15.4848L94.5033 17.1008Z" fill="#74BC1F"/>
<path d="M113.285 11.0243H102.605C100.943 11.0243 99.5953 12.3717 99.5953 14.0344V17.2399H113.285C114.08 17.2399 114.724 17.8839 114.724 18.6786V27.2949C114.724 28.089 114.08 28.7336 113.285 28.7336H106.09C105.137 28.7336 104.364 27.9605 104.364 27.0074C104.364 26.0543 105.137 25.2818 106.09 25.2818H112.206V22.9448C112.206 21.7009 111.197 20.6917 109.953 20.6917H105.277C101.34 20.6917 98.1484 23.883 98.1484 27.8198C98.1484 31.7558 101.339 34.9472 105.275 34.9479L113.285 34.9492C117.513 34.9492 120.94 31.5218 120.94 27.2949V18.6786C120.94 14.451 117.513 11.0243 113.285 11.0243Z" fill="#74BC1F"/>
<path d="M33.4728 11.0243H22.7929C21.1302 11.0243 19.7828 12.3717 19.7828 14.0344V17.2399H33.4728C34.2676 17.2399 34.9116 17.8839 34.9116 18.6786V27.2949C34.9116 28.089 34.2676 28.7336 33.4728 28.7336H26.2778C25.3247 28.7336 24.5515 27.9605 24.5515 27.0074C24.5515 26.0543 25.3247 25.2818 26.2778 25.2818H32.3933V22.9448C32.3933 21.7009 31.3841 20.6917 30.1401 20.6917H25.464C21.5273 20.6917 18.3359 23.883 18.3359 27.8198C18.3359 31.7558 21.5266 34.9472 25.4627 34.9479L33.4728 34.9492C37.7005 34.9492 41.1272 31.5218 41.1272 27.2949V18.6786C41.1272 14.451 37.7005 11.0243 33.4728 11.0243Z" fill="#74BC1F"/>
<path d="M297.162 22.4037L295.624 31.2694H293.93L295.771 20.6697H297.407L297.162 22.4037ZM299.994 20.6012L299.807 22.2861C299.683 22.26 299.556 22.2371 299.425 22.2176C299.301 22.198 299.177 22.1882 299.053 22.1882C298.668 22.1816 298.335 22.2567 298.054 22.4135C297.773 22.5702 297.531 22.7792 297.329 23.0404C297.133 23.3017 296.967 23.589 296.829 23.9025C296.692 24.216 296.581 24.5328 296.496 24.8528L295.997 25.1467C296.055 24.7026 296.147 24.2095 296.271 23.6674C296.402 23.1188 296.588 22.5963 296.829 22.1C297.071 21.5971 297.388 21.1889 297.78 20.8755C298.172 20.562 298.661 20.4183 299.249 20.4444C299.38 20.451 299.504 20.4705 299.621 20.5032C299.745 20.5293 299.87 20.562 299.994 20.6012Z" fill="#74BC1F"/>
<path d="M288.606 31.4674C287.92 31.4543 287.348 31.3172 286.891 31.056C286.434 30.7947 286.078 30.4421 285.824 29.998C285.569 29.5539 285.399 29.051 285.314 28.4893C285.236 27.9277 285.229 27.3432 285.295 26.7358L285.441 25.5406C285.52 24.9137 285.667 24.2965 285.882 23.6891C286.098 23.0817 286.388 22.5332 286.754 22.0433C287.12 21.547 287.571 21.1551 288.106 20.8678C288.642 20.5804 289.269 20.4498 289.987 20.4759C290.699 20.4955 291.264 20.6555 291.682 20.9559C292.1 21.2564 292.407 21.6482 292.603 22.1315C292.799 22.6148 292.91 23.1471 292.936 23.7283C292.968 24.3096 292.949 24.8908 292.877 25.4721L292.73 26.4811H286.294L286.558 25.0018L291.241 25.0116L291.28 24.7471C291.332 24.3487 291.342 23.9406 291.309 23.5226C291.277 23.0981 291.153 22.7389 290.937 22.445C290.722 22.1446 290.369 21.9813 289.879 21.9552C289.376 21.929 288.958 22.0237 288.625 22.2393C288.299 22.4548 288.034 22.7454 287.832 23.1111C287.629 23.4769 287.473 23.8752 287.362 24.3063C287.257 24.7308 287.182 25.1422 287.136 25.5406L286.989 26.7456C286.95 27.1048 286.937 27.4738 286.95 27.8526C286.963 28.2248 287.025 28.571 287.136 28.891C287.254 29.211 287.44 29.4722 287.695 29.6747C287.956 29.8706 288.315 29.9751 288.772 29.9882C289.282 30.0012 289.739 29.8967 290.144 29.6747C290.555 29.4526 290.931 29.1587 291.27 28.793L292.093 29.9C291.812 30.2592 291.486 30.5563 291.114 30.7915C290.748 31.0266 290.353 31.1996 289.928 31.3107C289.504 31.4217 289.063 31.4739 288.606 31.4674Z" fill="#74BC1F"/>
<path d="M284.651 20.6702L284.406 22.0613H279.586L279.841 20.6702H284.651ZM281.849 18.0938H283.544L281.751 28.664C281.731 28.8338 281.725 29.0134 281.731 29.2028C281.738 29.3922 281.78 29.5522 281.859 29.6828C281.944 29.8134 282.097 29.882 282.319 29.8885C282.437 29.8885 282.554 29.8787 282.672 29.8591C282.789 29.833 282.904 29.8102 283.015 29.7906L282.868 31.2796C282.691 31.3449 282.509 31.3906 282.319 31.4168C282.136 31.4494 281.95 31.4625 281.761 31.4559C281.251 31.4494 280.869 31.2992 280.615 31.0053C280.366 30.7049 280.206 30.3392 280.135 29.9081C280.063 29.4706 280.046 29.0461 280.086 28.6346L281.849 18.0938Z" fill="#74BC1F"/>
<path d="M272.742 23.043L271.312 31.2719H269.617L271.459 20.6723H273.056L272.742 23.043ZM271.959 25.6096L271.341 25.5802C271.413 25.0251 271.537 24.4471 271.714 23.8463C271.896 23.2389 272.148 22.6772 272.468 22.1613C272.788 21.6454 273.19 21.2307 273.673 20.9172C274.163 20.5972 274.75 20.4469 275.436 20.4665C275.965 20.4861 276.39 20.6135 276.71 20.8486C277.036 21.0837 277.275 21.3907 277.425 21.7695C277.582 22.1417 277.676 22.5532 277.709 23.0038C277.742 23.4479 277.735 23.8887 277.689 24.3263L276.533 31.2719H274.839L276.004 24.2969C276.037 23.9573 276.04 23.6144 276.014 23.2683C275.995 22.9156 275.897 22.6185 275.72 22.3768C275.544 22.1287 275.24 21.998 274.809 21.985C274.359 21.9719 273.963 22.0829 273.624 22.318C273.291 22.5532 273.01 22.8601 272.781 23.2389C272.553 23.6112 272.37 24.0095 272.233 24.4341C272.102 24.852 272.011 25.2439 271.959 25.6096Z" fill="#74BC1F"/>
<path d="M264.293 31.4674C263.607 31.4543 263.036 31.3172 262.579 31.056C262.122 30.7947 261.766 30.4421 261.511 29.998C261.256 29.5539 261.087 29.051 261.002 28.4893C260.923 27.9277 260.917 27.3432 260.982 26.7358L261.129 25.5406C261.207 24.9137 261.354 24.2965 261.57 23.6891C261.785 23.0817 262.076 22.5332 262.442 22.0433C262.807 21.547 263.258 21.1551 263.794 20.8678C264.329 20.5804 264.956 20.4498 265.674 20.4759C266.386 20.4955 266.951 20.6555 267.369 20.9559C267.787 21.2564 268.094 21.6482 268.29 22.1315C268.486 22.6148 268.597 23.1471 268.623 23.7283C268.656 24.3096 268.636 24.8908 268.564 25.4721L268.417 26.4811H261.981L262.246 25.0018L266.928 25.0116L266.968 24.7471C267.02 24.3487 267.03 23.9406 266.997 23.5226C266.964 23.0981 266.84 22.7389 266.625 22.445C266.409 22.1446 266.057 21.9813 265.567 21.9552C265.064 21.929 264.646 22.0237 264.313 22.2393C263.986 22.4548 263.722 22.7454 263.519 23.1111C263.317 23.4769 263.16 23.8752 263.049 24.3063C262.945 24.7308 262.869 25.1422 262.824 25.5406L262.677 26.7456C262.638 27.1048 262.625 27.4738 262.638 27.8526C262.651 28.2248 262.713 28.571 262.824 28.891C262.941 29.211 263.127 29.4722 263.382 29.6747C263.643 29.8706 264.003 29.9751 264.46 29.9882C264.969 30.0012 265.426 29.8967 265.831 29.6747C266.243 29.4526 266.618 29.1587 266.958 28.793L267.781 29.9C267.5 30.2592 267.173 30.5563 266.801 30.7915C266.435 31.0266 266.04 31.1996 265.616 31.3107C265.191 31.4217 264.75 31.4739 264.293 31.4674Z" fill="#74BC1F"/>
<path d="M257.371 26.7437L259.085 26.7241C258.955 27.6449 258.677 28.4678 258.253 29.1928C257.835 29.9177 257.273 30.4859 256.568 30.8973C255.869 31.3022 255.027 31.4916 254.04 31.4655C253.237 31.4459 252.577 31.25 252.062 30.8777C251.552 30.5055 251.16 30.0222 250.886 29.4279C250.618 28.8336 250.452 28.1903 250.386 27.498C250.321 26.7992 250.331 26.1167 250.416 25.4506L250.827 22.8153C250.945 22.0708 251.141 21.3394 251.415 20.621C251.689 19.896 252.055 19.243 252.512 18.6617C252.969 18.0805 253.521 17.6233 254.168 17.2902C254.814 16.9506 255.565 16.7906 256.421 16.8102C257.355 16.8298 258.093 17.0616 258.635 17.5057C259.183 17.9498 259.569 18.5311 259.791 19.2495C260.013 19.9679 260.108 20.7483 260.075 21.5908L258.312 21.581C258.331 21.0651 258.302 20.5655 258.223 20.0822C258.152 19.5924 257.972 19.1874 257.685 18.8674C257.397 18.5409 256.94 18.3678 256.313 18.3482C255.699 18.3286 255.173 18.4527 254.736 18.7205C254.298 18.9817 253.936 19.3344 253.649 19.7785C253.361 20.2226 253.133 20.7091 252.963 21.2381C252.793 21.7671 252.669 22.2863 252.591 22.7958L252.179 25.4604C252.12 25.8718 252.084 26.329 252.071 26.8318C252.065 27.3347 252.117 27.818 252.228 28.2817C252.339 28.7454 252.545 29.1307 252.845 29.4377C253.146 29.7446 253.577 29.9112 254.138 29.9373C254.844 29.9634 255.409 29.8361 255.833 29.5552C256.258 29.2744 256.587 28.8891 256.823 28.3993C257.058 27.9029 257.241 27.3511 257.371 26.7437Z" fill="#74BC1F"/>
<path d="M238.594 23.043L237.164 31.2719H235.469L237.31 20.6723H238.907L238.594 23.043ZM237.81 25.6096L237.193 25.5802C237.265 25.0251 237.389 24.4471 237.565 23.8463C237.748 23.2389 237.999 22.6772 238.319 22.1613C238.639 21.6454 239.041 21.2307 239.524 20.9172C240.014 20.5972 240.602 20.4469 241.288 20.4665C241.817 20.4861 242.241 20.6135 242.561 20.8486C242.888 21.0837 243.126 21.3907 243.276 21.7695C243.433 22.1417 243.528 22.5532 243.561 23.0038C243.593 23.4479 243.587 23.8887 243.541 24.3263L242.385 31.2719H240.69L241.856 24.2969C241.889 23.9573 241.892 23.6144 241.866 23.2683C241.846 22.9156 241.748 22.6185 241.572 22.3768C241.396 22.1287 241.092 21.998 240.661 21.985C240.21 21.9719 239.815 22.0829 239.475 22.318C239.142 22.5532 238.862 22.8601 238.633 23.2389C238.404 23.6112 238.222 24.0095 238.084 24.4341C237.954 24.852 237.862 25.2439 237.81 25.6096Z" fill="#74BC1F"/>
<path d="M226.194 26.4811L226.321 25.4819C226.406 24.8484 226.563 24.2313 226.792 23.6304C227.027 23.0296 227.337 22.4875 227.722 22.0042C228.108 21.5209 228.571 21.1389 229.113 20.858C229.662 20.5772 230.295 20.4499 231.014 20.476C231.693 20.4956 232.258 20.6556 232.709 20.956C233.159 21.2499 233.509 21.6385 233.757 22.1218C234.012 22.6051 234.178 23.1373 234.256 23.7186C234.335 24.2998 234.345 24.8843 234.286 25.4721L234.158 26.4811C234.074 27.1081 233.914 27.7253 233.678 28.3327C233.45 28.9335 233.14 29.4756 232.748 29.9588C232.362 30.4356 231.896 30.8144 231.347 31.0952C230.805 31.3695 230.178 31.4936 229.466 31.4675C228.78 31.4544 228.212 31.2977 227.761 30.9973C227.317 30.6968 226.968 30.305 226.713 29.8217C226.465 29.3384 226.302 28.8061 226.223 28.2249C226.145 27.6436 226.135 27.0624 226.194 26.4811ZM228.016 25.4721L227.889 26.5007C227.856 26.8273 227.843 27.1897 227.85 27.5881C227.856 27.98 227.912 28.3555 228.016 28.7147C228.121 29.0739 228.294 29.3743 228.535 29.616C228.784 29.8511 229.126 29.9784 229.564 29.998C230.06 30.0242 230.478 29.9327 230.818 29.7237C231.164 29.5147 231.448 29.2372 231.67 28.891C231.899 28.5384 232.075 28.1531 232.199 27.7351C232.323 27.3106 232.411 26.8926 232.464 26.4811L232.591 25.4623C232.624 25.1358 232.637 24.7766 232.63 24.3847C232.624 23.9929 232.568 23.6173 232.464 23.2582C232.359 22.8924 232.183 22.5887 231.935 22.3471C231.693 22.1054 231.35 21.9748 230.906 21.9552C230.442 21.9356 230.037 22.0336 229.691 22.2491C229.352 22.4581 229.068 22.7422 228.839 23.1014C228.61 23.4606 228.428 23.8492 228.29 24.2672C228.16 24.6851 228.068 25.0868 228.016 25.4721Z" fill="#74BC1F"/>
<path d="M224.886 20.6706L223.044 31.2703H221.359L223.201 20.6706H224.886ZM223.593 17.8787C223.606 17.5913 223.697 17.3431 223.867 17.1342C224.037 16.9186 224.269 16.8076 224.563 16.8011C224.87 16.7945 225.108 16.8958 225.278 17.1048C225.448 17.3138 225.526 17.5619 225.513 17.8493C225.5 18.1236 225.405 18.3652 225.229 18.5742C225.053 18.7767 224.821 18.8812 224.533 18.8877C224.233 18.8942 223.998 18.7995 223.828 18.6036C223.665 18.4011 223.586 18.1595 223.593 17.8787Z" fill="#74BC1F"/>
<path d="M221.073 20.6702L220.828 22.0613H216.008L216.263 20.6702H221.073ZM218.271 18.0938H219.966L218.173 28.664C218.153 28.8338 218.147 29.0134 218.153 29.2028C218.16 29.3922 218.202 29.5522 218.281 29.6828C218.365 29.8134 218.519 29.882 218.741 29.8885C218.859 29.8885 218.976 29.8787 219.094 29.8591C219.211 29.833 219.326 29.8102 219.437 29.7906L219.29 31.2796C219.113 31.3449 218.93 31.3906 218.741 31.4168C218.558 31.4494 218.372 31.4625 218.183 31.4559C217.673 31.4494 217.291 31.2992 217.036 31.0053C216.788 30.7049 216.628 30.3392 216.556 29.9081C216.485 29.4706 216.468 29.0461 216.507 28.6346L218.271 18.0938Z" fill="#74BC1F"/>
<path d="M211.514 29.4583L212.445 23.6882C212.477 23.3486 212.458 23.0515 212.386 22.7968C212.32 22.5355 212.183 22.3298 211.974 22.1796C211.772 22.0294 211.484 21.9543 211.112 21.9543C210.773 21.9478 210.469 22.0163 210.201 22.16C209.933 22.2972 209.711 22.4898 209.535 22.738C209.365 22.9862 209.248 23.2735 209.182 23.6001L207.507 23.6099C207.553 23.1331 207.687 22.7021 207.909 22.3168C208.137 21.9249 208.428 21.5918 208.781 21.3175C209.133 21.0367 209.525 20.8245 209.956 20.6808C210.387 20.5306 210.835 20.4587 211.298 20.4653C211.964 20.4718 212.52 20.6122 212.964 20.8865C213.408 21.1543 213.728 21.5331 213.924 22.0229C214.126 22.5062 214.195 23.0743 214.129 23.7274L213.267 28.9587C213.209 29.3309 213.186 29.6901 213.199 30.0363C213.212 30.3824 213.228 30.7383 213.248 31.1041L213.228 31.2706L211.533 31.2804C211.468 30.98 211.439 30.6763 211.445 30.3693C211.452 30.0624 211.475 29.7587 211.514 29.4583ZM212.572 24.8442L212.366 26.1177L211.289 26.1079C210.942 26.1079 210.596 26.1471 210.25 26.2255C209.911 26.3039 209.594 26.428 209.3 26.5978C209.013 26.761 208.771 26.9798 208.575 27.2541C208.386 27.5219 208.268 27.8517 208.222 28.2435C208.183 28.5636 208.193 28.8509 208.252 29.1056C208.317 29.3538 208.444 29.553 208.634 29.7032C208.83 29.8469 209.104 29.9187 209.457 29.9187C209.822 29.9187 210.175 29.8371 210.515 29.6738C210.854 29.5105 211.145 29.2885 211.387 29.0077C211.635 28.7268 211.798 28.4068 211.876 28.0476L212.141 28.8705C212.062 29.2101 211.929 29.5399 211.739 29.8599C211.556 30.1734 211.331 30.4542 211.063 30.7024C210.795 30.9441 210.495 31.1335 210.162 31.2706C209.835 31.4143 209.486 31.4861 209.114 31.4861C208.519 31.4861 208.02 31.3522 207.615 31.0845C207.21 30.8167 206.91 30.4575 206.714 30.0069C206.518 29.5497 206.439 29.0338 206.479 28.4591C206.511 27.8452 206.658 27.3096 206.919 26.8525C207.187 26.3953 207.533 26.0198 207.958 25.7259C208.382 25.4255 208.856 25.2034 209.378 25.0597C209.907 24.9095 210.456 24.8344 211.024 24.8344L212.572 24.8442Z" fill="#74BC1F"/>
<path d="M205.987 20.6702L205.742 22.0613H200.922L201.177 20.6702H205.987ZM203.185 18.0938H204.88L203.087 28.664C203.067 28.8338 203.061 29.0134 203.067 29.2028C203.074 29.3922 203.116 29.5522 203.195 29.6828C203.28 29.8134 203.433 29.882 203.655 29.8885C203.773 29.8885 203.89 29.8787 204.008 29.8591C204.125 29.833 204.24 29.8102 204.351 29.7906L204.204 31.2796C204.027 31.3449 203.844 31.3906 203.655 31.4168C203.472 31.4494 203.286 31.4625 203.097 31.4559C202.587 31.4494 202.205 31.2992 201.95 31.0053C201.702 30.7049 201.542 30.3392 201.47 29.9081C201.399 29.4706 201.382 29.0461 201.421 28.6346L203.185 18.0938Z" fill="#74BC1F"/>
<path d="M194.078 23.043L192.648 31.2719H190.953L192.795 20.6723H194.392L194.078 23.043ZM193.294 25.6096L192.677 25.5802C192.749 25.0251 192.873 24.4471 193.05 23.8463C193.232 23.2389 193.484 22.6772 193.804 22.1613C194.124 21.6454 194.526 21.2307 195.009 20.9172C195.499 20.5972 196.086 20.4469 196.772 20.4665C197.301 20.4861 197.726 20.6135 198.046 20.8486C198.372 21.0837 198.611 21.3907 198.761 21.7695C198.918 22.1417 199.012 22.5532 199.045 23.0038C199.078 23.4479 199.071 23.8887 199.025 24.3263L197.869 31.2719H196.175L197.34 24.2969C197.373 23.9573 197.376 23.6144 197.35 23.2683C197.331 22.9156 197.233 22.6185 197.056 22.3768C196.88 22.1287 196.576 21.998 196.145 21.985C195.695 21.9719 195.299 22.0829 194.96 22.318C194.627 22.5532 194.346 22.8601 194.117 23.2389C193.889 23.6112 193.706 24.0095 193.569 24.4341C193.438 24.852 193.347 25.2439 193.294 25.6096Z" fill="#74BC1F"/>
<path d="M185.629 31.4674C184.943 31.4543 184.372 31.3172 183.915 31.056C183.458 30.7947 183.102 30.4421 182.847 29.998C182.592 29.5539 182.422 29.051 182.338 28.4893C182.259 27.9277 182.253 27.3432 182.318 26.7358L182.465 25.5406C182.543 24.9137 182.69 24.2965 182.906 23.6891C183.121 23.0817 183.412 22.5332 183.778 22.0433C184.143 21.547 184.594 21.1551 185.13 20.8678C185.665 20.5804 186.292 20.4498 187.01 20.4759C187.722 20.4955 188.287 20.6555 188.705 20.9559C189.123 21.2564 189.43 21.6482 189.626 22.1315C189.822 22.6148 189.933 23.1471 189.959 23.7283C189.992 24.3096 189.972 24.8908 189.9 25.4721L189.753 26.4811H183.317L183.582 25.0018L188.264 25.0116L188.304 24.7471C188.356 24.3487 188.366 23.9406 188.333 23.5226C188.3 23.0981 188.176 22.7389 187.961 22.445C187.745 22.1446 187.392 21.9813 186.903 21.9552C186.4 21.929 185.982 22.0237 185.649 22.2393C185.322 22.4548 185.058 22.7454 184.855 23.1111C184.653 23.4769 184.496 23.8752 184.385 24.3063C184.28 24.7308 184.205 25.1422 184.16 25.5406L184.013 26.7456C183.974 27.1048 183.96 27.4738 183.974 27.8526C183.987 28.2248 184.049 28.571 184.16 28.891C184.277 29.211 184.463 29.4722 184.718 29.6747C184.979 29.8706 185.339 29.9751 185.796 29.9882C186.305 30.0012 186.762 29.8967 187.167 29.6747C187.579 29.4526 187.954 29.1587 188.294 28.793L189.117 29.9C188.836 30.2592 188.509 30.5563 188.137 30.7915C187.771 31.0266 187.376 31.1996 186.952 31.3107C186.527 31.4217 186.086 31.4739 185.629 31.4674Z" fill="#74BC1F"/>
<path d="M170.316 22.8855L168.857 31.2711H167.172L169.014 20.6715H170.601L170.316 22.8855ZM169.543 25.5795L168.818 25.5599C168.883 24.9786 169.004 24.3876 169.18 23.7867C169.356 23.1794 169.605 22.621 169.925 22.1116C170.245 21.6022 170.653 21.1972 171.149 20.8968C171.646 20.5899 172.246 20.4494 172.952 20.4756C173.461 20.4886 173.876 20.6095 174.196 20.838C174.516 21.0666 174.761 21.3638 174.931 21.7295C175.1 22.0887 175.208 22.4871 175.254 22.9247C175.3 23.3557 175.3 23.7835 175.254 24.208L174.078 31.2711H172.384L173.549 24.2863C173.588 23.9271 173.585 23.5745 173.539 23.2283C173.494 22.8822 173.37 22.5916 173.167 22.3565C172.971 22.1214 172.655 21.9973 172.217 21.9842C171.734 21.9646 171.332 22.0691 171.012 22.2977C170.692 22.5197 170.431 22.8169 170.228 23.1892C170.032 23.5549 169.882 23.95 169.778 24.3745C169.673 24.799 169.595 25.2007 169.543 25.5795ZM175.224 24.5704L174.049 24.9329C174.108 24.3974 174.235 23.8651 174.431 23.3361C174.627 22.8006 174.888 22.314 175.215 21.8764C175.541 21.4389 175.94 21.0927 176.41 20.838C176.88 20.5768 177.422 20.4527 178.036 20.4658C178.585 20.4788 179.029 20.5997 179.368 20.8282C179.708 21.0503 179.963 21.3442 180.132 21.7099C180.309 22.0756 180.42 22.4838 180.466 22.9345C180.511 23.3851 180.508 23.8422 180.456 24.3059L179.29 31.2711H177.605L178.761 24.2766C178.8 23.9108 178.797 23.5549 178.751 23.2088C178.712 22.8561 178.591 22.5655 178.389 22.3369C178.186 22.1083 177.86 21.9907 177.409 21.9842C177.063 21.9842 176.762 22.0626 176.508 22.2193C176.253 22.3695 176.038 22.5753 175.861 22.8365C175.691 23.0912 175.554 23.372 175.45 23.679C175.352 23.9794 175.277 24.2766 175.224 24.5704Z" fill="#74BC1F"/>
<path d="M163.406 28.7245L164.806 20.6719H166.501L164.66 31.2715H163.053L163.406 28.7245ZM164.042 26.5497L164.63 26.5301C164.558 27.1048 164.447 27.6893 164.297 28.2836C164.147 28.8714 163.928 29.4102 163.641 29.9C163.36 30.3898 162.984 30.7817 162.514 31.0756C162.044 31.3629 161.456 31.4968 160.751 31.4772C160.202 31.4642 159.765 31.3368 159.438 31.0952C159.112 30.847 158.867 30.5303 158.703 30.1449C158.54 29.7531 158.442 29.3286 158.409 28.8714C158.377 28.4077 158.387 27.9538 158.439 27.5097L159.585 20.6719H161.27L160.124 27.5391C160.104 27.7481 160.091 27.9865 160.085 28.2542C160.078 28.522 160.101 28.7832 160.153 29.0379C160.212 29.2861 160.316 29.4951 160.467 29.6649C160.623 29.8282 160.849 29.9163 161.143 29.9294C161.796 29.9621 162.321 29.8086 162.72 29.469C163.118 29.1294 163.419 28.6951 163.621 28.1661C163.83 27.6305 163.971 27.0917 164.042 26.5497Z" fill="#74BC1F"/>
<path d="M152.586 30.0081C153.011 30.0211 153.37 29.9329 153.664 29.7436C153.964 29.5542 154.206 29.2994 154.389 28.9794C154.572 28.6594 154.706 28.31 154.791 27.9312L156.378 27.9214C156.28 28.5876 156.054 29.1917 155.702 29.7338C155.355 30.2758 154.908 30.7069 154.359 31.0269C153.811 31.3404 153.187 31.4906 152.488 31.4775C151.783 31.4644 151.205 31.3175 150.754 31.0367C150.304 30.7493 149.958 30.3738 149.716 29.9101C149.481 29.4399 149.331 28.9174 149.265 28.3427C149.2 27.768 149.203 27.1769 149.275 26.5695L149.432 25.3744C149.517 24.7278 149.667 24.1074 149.883 23.5131C150.098 22.9122 150.389 22.38 150.754 21.9163C151.127 21.4526 151.581 21.0901 152.116 20.8289C152.658 20.5677 153.295 20.4501 154.026 20.4762C154.764 20.4958 155.359 20.6852 155.809 21.0444C156.26 21.4036 156.583 21.8738 156.779 22.4551C156.975 23.0298 157.06 23.6535 157.034 24.3262L155.447 24.3164C155.46 23.9507 155.431 23.5915 155.359 23.2388C155.287 22.8796 155.14 22.5824 154.918 22.3473C154.696 22.1057 154.366 21.9751 153.928 21.9555C153.432 21.9359 153.014 22.024 152.675 22.22C152.341 22.4159 152.07 22.6837 151.861 23.0233C151.652 23.3563 151.489 23.7286 151.372 24.14C151.261 24.5515 151.179 24.9629 151.127 25.3744L150.97 26.5793C150.931 26.932 150.905 27.3043 150.892 27.6961C150.885 28.088 150.924 28.457 151.009 28.8031C151.094 29.1492 151.261 29.4333 151.509 29.6554C151.757 29.8774 152.116 29.995 152.586 30.0081Z" fill="#74BC1F"/>
<path d="M139.499 26.4811L139.626 25.4819C139.711 24.8484 139.868 24.2313 140.096 23.6304C140.331 23.0296 140.642 22.4875 141.027 22.0042C141.412 21.5209 141.876 21.1389 142.418 20.858C142.967 20.5772 143.6 20.4499 144.319 20.476C144.998 20.4956 145.563 20.6556 146.013 20.956C146.464 21.2499 146.813 21.6385 147.061 22.1218C147.316 22.6051 147.483 23.1373 147.561 23.7186C147.639 24.2998 147.649 24.8843 147.59 25.4721L147.463 26.4811C147.378 27.1081 147.218 27.7253 146.983 28.3327C146.755 28.9335 146.444 29.4756 146.052 29.9588C145.667 30.4356 145.2 30.8144 144.652 31.0952C144.11 31.3695 143.483 31.4936 142.771 31.4675C142.085 31.4544 141.517 31.2977 141.066 30.9973C140.622 30.6968 140.273 30.305 140.018 29.8217C139.77 29.3384 139.606 28.8061 139.528 28.2249C139.45 27.6436 139.44 27.0624 139.499 26.4811ZM141.321 25.4721L141.193 26.5007C141.161 26.8273 141.148 27.1897 141.154 27.5881C141.161 27.98 141.216 28.3555 141.321 28.7147C141.425 29.0739 141.598 29.3743 141.84 29.616C142.088 29.8511 142.431 29.9784 142.869 29.998C143.365 30.0242 143.783 29.9327 144.123 29.7237C144.469 29.5147 144.753 29.2372 144.975 28.891C145.203 28.5384 145.38 28.1531 145.504 27.7351C145.628 27.3106 145.716 26.8926 145.768 26.4811L145.896 25.4623C145.928 25.1358 145.941 24.7766 145.935 24.3847C145.928 23.9929 145.873 23.6173 145.768 23.2582C145.664 22.8924 145.488 22.5887 145.239 22.3471C144.998 22.1054 144.655 21.9748 144.211 21.9552C143.747 21.9356 143.342 22.0336 142.996 22.2491C142.656 22.4581 142.372 22.7422 142.144 23.1014C141.915 23.4606 141.732 23.8492 141.595 24.2672C141.465 24.6851 141.373 25.0868 141.321 25.4721Z" fill="#74BC1F"/>
<path d="M131.37 31.2713H128.891L129.185 29.7332L131.419 29.743C132.333 29.7496 133.094 29.5634 133.701 29.1847C134.308 28.7993 134.785 28.2769 135.131 27.6172C135.477 26.9511 135.716 26.1968 135.846 25.3543L136.209 22.9052C136.281 22.3893 136.307 21.8799 136.287 21.377C136.268 20.8676 136.176 20.4039 136.013 19.9859C135.85 19.5679 135.585 19.2316 135.22 18.9769C134.854 18.7222 134.357 18.585 133.73 18.5654L131.046 18.5556L131.321 17.0078L133.779 17.0176C134.622 17.0372 135.334 17.2135 135.915 17.5466C136.496 17.8732 136.953 18.314 137.287 18.8691C137.62 19.4177 137.838 20.0414 137.943 20.7402C138.047 21.439 138.051 22.1705 137.953 22.9346L137.59 25.3543C137.46 26.2098 137.234 27.0001 136.914 27.725C136.594 28.4499 136.176 29.0802 135.66 29.6157C135.144 30.1447 134.527 30.5561 133.809 30.85C133.097 31.1374 132.284 31.2778 131.37 31.2713ZM132.349 17.0078L129.871 31.2713H128.117L130.586 17.0078H132.349Z" fill="#74BC1F"/>
</svg>
