<svg width="24" height="24" viewBox="0 0 24 24" fill="none" xmlns="http://www.w3.org/2000/svg">
<path d="M1.07031 10.7732C1.55003 5.26164 6.36551 1.09686 11.4505 1C11.8572 1.1153 12.2638 1.10608 12.6658 1.00461C14.0776 1.05996 15.4299 1.3782 16.6726 2.05619C17.3899 2.44361 18.0935 2.84025 18.756 3.3522C21.4653 5.4369 22.8496 8.22726 22.9867 11.5665C23.1283 14.9702 21.8445 17.8851 19.286 20.1728C17.1843 22.0545 14.7035 23.0046 11.9029 23C6.37465 22.9908 1.57745 18.6415 1.07488 13.2407C1.16626 12.4197 1.17083 11.5941 1.07031 10.7732Z" fill="#5562EA"/>
<path d="M1.0731 10.7754C1.31068 11.5964 1.30154 12.4173 1.07767 13.2429C0.972587 12.4219 0.977156 11.5964 1.0731 10.7754Z" fill="#5562EA"/>
<path d="M12.6684 1.00461C12.2618 1.23522 11.8552 1.23983 11.4531 1C11.8597 1 12.2664 1.00461 12.6684 1.00461Z" fill="#5562EA"/>
<path d="M8.24433 13.6309C7.4448 13.3541 6.63613 13.0866 5.84116 12.7961C5.57617 12.6992 5.18326 12.6669 5.16498 12.3256C5.14214 11.9382 5.54876 11.846 5.83202 11.726C8.18494 10.7483 10.5424 9.78432 12.8953 8.82038C13.9233 8.40067 14.9604 7.99019 15.9884 7.56587C16.3539 7.41828 16.7057 7.29375 17.0666 7.56126C17.2402 7.78726 17.2128 8.02248 17.0849 8.2577C16.5595 10.7898 16.0341 13.3172 15.5132 15.8493C15.4219 16.2829 15.3579 16.721 15.2482 17.1453C15.0289 18.0355 14.6223 18.1877 13.8685 17.6481C12.9913 17.0162 12.2192 16.246 11.278 15.6971C10.6292 15.4757 10.1175 15.0837 9.79771 14.4564C10.081 13.5894 10.8394 13.1143 11.4425 12.5378C12.4202 11.6154 13.4025 10.6975 14.1609 9.98726C12.6212 11.108 10.7206 12.238 8.89766 13.4787C8.70578 13.617 8.50018 13.7554 8.24433 13.6309Z" fill="#FBFDFF"/>
<path d="M8.24219 13.6315C10.4215 12.2156 12.6008 10.795 14.8029 9.36523C13.9943 10.2415 13.2541 11.1594 12.3952 11.948C11.5089 12.7644 10.6362 13.5854 9.85496 14.5032C9.97832 15.1212 9.96918 15.7439 9.85039 16.3527C9.78643 16.6709 9.8047 17.0906 9.33412 17.1644C8.82699 16.0344 8.54373 14.8306 8.24219 13.6315Z" fill="#D7E3EB"/>
<path d="M9.33594 17.169C9.66489 16.6294 9.66946 16.0252 9.68773 15.4164C9.69687 15.112 9.57351 14.7661 9.85221 14.5078C10.3274 14.9091 10.7979 15.3057 11.2731 15.707C10.967 16.242 10.4873 16.611 10.0532 17.0168C9.87962 17.1736 9.64661 17.4873 9.33594 17.169Z" fill="#A0BBD2"/>
<path d="M17.0808 8.26089C17.0762 8.03028 17.0716 7.79506 17.0625 7.56445C17.2864 7.79506 17.4189 8.02106 17.0808 8.26089Z" fill="#5562EA"/>
</svg>
