<svg width="72" height="72" viewBox="0 0 72 72" fill="none" xmlns="http://www.w3.org/2000/svg">
<rect width="72" height="72" rx="20" fill="#E1D800"/>
<path d="M18.5672 16.1264C19.9076 14.786 19.3714 14.786 20.7119 16.1264C22.8566 18.5392 25.2694 20.6839 27.4141 23.0967C27.9503 23.6329 27.9503 23.901 27.4141 24.4372C26.3418 25.2415 26.3418 25.2415 27.4141 26.0457C29.0226 27.9223 30.8993 29.5309 32.5078 30.8713C32.7759 31.1394 32.7759 31.6756 32.5078 31.9437C31.7035 32.7479 31.1674 33.5522 30.3631 34.0884C30.095 34.3565 29.8269 34.3565 29.5588 34.0884C27.6822 32.2118 26.0737 30.6032 24.197 28.7266C23.6609 28.1904 23.3928 28.1904 22.8566 28.7266C22.0523 29.799 22.0523 29.799 21.2481 28.7266C19.3714 27.1181 15.3501 23.0967 14.0097 21.4882C13.7416 21.2201 13.7416 20.952 14.0097 20.6839C15.082 19.6116 17.2267 17.4669 18.5672 16.1264Z" fill="white"/>
<path d="M46.7155 15.8535C44.3027 18.5344 41.8899 21.2153 39.209 23.8962C38.6728 24.4324 38.6728 24.9686 38.9409 25.7728C39.7452 27.6494 40.2814 29.5261 40.8175 31.4027C41.0856 31.9389 41.3537 32.207 41.8899 32.207C43.7665 32.475 45.9112 33.0112 47.7879 33.2793C48.5921 33.5474 48.8602 33.2793 49.3964 32.7431C51.5411 30.5984 53.4177 28.1856 55.5624 26.0409C55.8305 25.7728 56.0986 25.5047 56.3667 25.2366C56.6348 26.5771 56.6348 27.9175 56.3667 28.9899C55.2943 33.8155 51.8092 36.7645 46.9836 37.5687C45.3751 37.8368 43.7665 37.5687 42.158 37.0326C41.8899 37.0326 41.0856 37.0326 40.8175 37.3006C36.5281 39.9815 32.7749 43.4667 29.5578 47.488C29.2897 48.0242 29.0216 48.2923 29.2897 48.8285C30.3621 52.5817 27.9493 56.335 24.4641 57.1392C20.4428 57.9435 17.2257 55.5307 16.4215 52.0455C15.6172 48.0242 18.5662 44.0029 22.8556 44.0029C23.3918 44.0029 24.196 44.0029 24.7322 44.0029C25.0003 44.0029 25.2684 44.0029 25.5365 43.7348C29.2897 40.2496 32.5068 36.2283 35.1877 31.6708C35.4558 31.4027 35.4558 30.8665 35.1877 30.3303C32.7749 23.8962 36.7962 16.9259 43.4984 15.8535C44.5708 15.5854 45.6431 15.8535 46.7155 15.8535ZM26.6088 50.7051C26.6088 48.5604 25.0003 46.9518 22.8556 46.9518C20.7109 46.9518 19.1023 48.5604 19.1023 50.7051C19.1023 52.8498 20.7109 54.4583 22.8556 54.4583C25.0003 54.4583 26.6088 52.5817 26.6088 50.7051Z" fill="white"/>
<path d="M47.5175 57.4106C46.4452 57.4106 45.3728 57.1425 44.5686 56.3382C41.3515 53.1211 38.4025 49.9041 35.1854 46.687C34.9174 46.4189 34.9174 45.8827 35.1854 45.6146C37.0621 42.6657 39.4749 40.2529 42.96 38.9124C43.4962 38.6443 43.7643 38.6443 44.0324 39.1805C46.9814 42.1295 49.9303 44.8104 52.8793 47.4913C55.024 49.3679 55.024 52.0488 52.8793 53.9254C52.075 54.7297 51.2708 55.5339 50.7346 56.0701C49.9303 56.8744 48.858 57.4106 47.5175 57.4106ZM51.807 49.3679L43.7643 41.3252C43.2281 40.789 42.6919 41.0571 42.1558 41.3252C41.6196 41.8614 41.6196 42.3976 42.1558 42.9338C42.1558 43.2018 50.4665 51.2445 50.4665 51.2445C50.4665 51.2445 51.2708 51.5126 52.075 50.9764C52.3431 50.4403 51.807 49.3679 51.807 49.3679ZM38.4025 44.8104C37.8663 45.3466 38.1344 46.4189 38.4025 46.687C40.8153 49.3679 43.4962 51.7807 46.1771 54.4616C46.7133 54.9978 47.5175 55.2659 48.0537 54.7297C48.5899 54.1935 48.5899 53.3892 47.7856 52.8531C45.3728 50.1722 42.6919 47.7594 40.011 45.3466C40.011 44.8104 39.2068 44.2742 38.4025 44.8104Z" fill="white"/>
</svg>
