<svg width="72" height="72" viewBox="0 0 72 72" fill="none" xmlns="http://www.w3.org/2000/svg">
<rect width="72" height="72" rx="20" fill="#3DDB84"/>
<path d="M18.0893 26.8428C17.688 26.8384 17.2898 26.913 16.9173 27.0625C16.5449 27.212 16.2055 27.4334 15.9186 27.7141C15.6318 27.9948 15.403 28.3292 15.2454 28.6983C15.0877 29.0674 15.0044 29.4639 15 29.8652V42.5571C15 43.3764 15.3255 44.1622 15.9048 44.7416C16.4842 45.3209 17.27 45.6464 18.0893 45.6464C18.9087 45.6464 19.6944 45.3209 20.2738 44.7416C20.8532 44.1622 21.1786 43.3764 21.1786 42.5571V29.8652C21.1743 29.4639 21.0909 29.0674 20.9333 28.6983C20.7756 28.3292 20.5469 27.9948 20.26 27.7141C19.9731 27.4334 19.6338 27.212 19.2613 27.0625C18.8889 26.913 18.4906 26.8384 18.0893 26.8428ZM22.372 47.1521C22.3763 47.585 22.4666 48.0128 22.6377 48.4106C22.8088 48.8083 23.0572 49.1681 23.3685 49.469C23.6798 49.77 24.0478 50.006 24.4511 50.1635C24.8544 50.321 25.285 50.3968 25.7179 50.3864H27.9484V57.0781C27.9484 57.8974 28.2739 58.6832 28.8533 59.2626C29.4326 59.8419 30.2184 60.1674 31.0378 60.1674C31.8571 60.1674 32.6429 59.8419 33.2222 59.2626C33.8016 58.6832 34.1271 57.8974 34.1271 57.0781V50.3864H38.2983V57.0781C38.2983 57.8974 38.6238 58.6832 39.2031 59.2626C39.7825 59.842 40.5683 60.1674 41.3876 60.1674C42.207 60.1674 42.9927 59.842 43.5721 59.2626C44.1515 58.6832 44.477 57.8974 44.477 57.0781V50.3864H46.7075C47.1403 50.3968 47.5709 50.321 47.9743 50.1635C48.3776 50.006 48.7456 49.77 49.0569 49.469C49.3682 49.1681 49.6166 48.8083 49.7876 48.4106C49.9587 48.0128 50.049 47.585 50.0533 47.1521V27.4896H22.372V47.1521ZM43.0159 15.5115L45.1684 11.6637C45.2033 11.6141 45.2269 11.5573 45.2374 11.4975C45.2479 11.4377 45.245 11.3763 45.229 11.3177C45.2131 11.2591 45.1843 11.2048 45.1449 11.1586C45.1055 11.1123 45.0564 11.0754 45.0011 11.0504C44.9016 10.9978 44.7855 10.9858 44.6774 11.017C44.5693 11.0482 44.4774 11.1201 44.4212 11.2176L42.1906 15.11C40.2799 14.2933 38.2236 13.8722 36.1458 13.8722C34.0679 13.8722 32.0116 14.2933 30.1009 15.11L27.8703 11.2288C27.8189 11.1499 27.7432 11.0899 27.6547 11.0578C27.5663 11.0256 27.4697 11.023 27.3797 11.0504C27.3307 11.0761 27.2874 11.1113 27.2523 11.1541C27.2172 11.1969 27.1911 11.2463 27.1755 11.2993C27.1599 11.3524 27.1551 11.408 27.1615 11.463C27.1678 11.5179 27.1851 11.571 27.2124 11.6191L29.3648 15.5115C27.2846 16.4905 25.5181 18.0296 24.2633 19.9561C23.0085 21.8826 22.315 24.1205 22.2605 26.419H50.1426C50.0886 24.1175 49.3928 21.8768 48.1336 19.9496C46.8744 18.0224 45.1019 16.4853 43.0159 15.5115ZM29.8556 21.4782C29.635 21.4782 29.4194 21.4128 29.236 21.2903C29.0526 21.1677 28.9096 20.9935 28.8252 20.7898C28.7408 20.586 28.7187 20.3617 28.7617 20.1454C28.8048 19.929 28.911 19.7303 29.067 19.5743C29.2229 19.4184 29.4217 19.3122 29.638 19.2691C29.8543 19.2261 30.0786 19.2482 30.2824 19.3326C30.4862 19.417 30.6603 19.5599 30.7829 19.7433C30.9054 19.9268 30.9708 20.1424 30.9708 20.363C30.9738 20.5113 30.9472 20.6587 30.8924 20.7966C30.8377 20.9345 30.7561 21.0601 30.6522 21.166C30.5483 21.272 30.4244 21.3561 30.2876 21.4136C30.1508 21.471 30.0039 21.5006 29.8556 21.5005V21.4782ZM42.5252 21.4782C42.3046 21.4782 42.089 21.4128 41.9056 21.2902C41.7222 21.1677 41.5792 20.9935 41.4948 20.7897C41.4104 20.5859 41.3884 20.3617 41.4314 20.1453C41.4744 19.929 41.5807 19.7303 41.7366 19.5743C41.8926 19.4184 42.0913 19.3121 42.3077 19.2691C42.524 19.2261 42.7482 19.2482 42.952 19.3326C43.1558 19.417 43.33 19.56 43.4525 19.7434C43.5751 19.9268 43.6405 20.1424 43.6405 20.363C43.6435 20.5113 43.6168 20.6587 43.5621 20.7966C43.5074 20.9345 43.4257 21.0601 43.3218 21.1661C43.218 21.272 43.094 21.3562 42.9572 21.4136C42.8204 21.471 42.6735 21.5006 42.5252 21.5005V21.4782ZM54.2914 26.865C53.8892 26.8606 53.49 26.9357 53.1169 27.0859C52.7437 27.2361 52.4039 27.4585 52.1168 27.7403C51.8298 28.0222 51.6013 28.3579 51.4443 28.7283C51.2873 29.0987 51.205 29.4964 51.2021 29.8986V42.5906C51.2021 43.4099 51.5276 44.1957 52.107 44.775C52.6863 45.3544 53.4721 45.6799 54.2914 45.6799C55.1108 45.6799 55.8966 45.3544 56.4759 44.775C57.0553 44.1957 57.3808 43.4099 57.3808 42.5906V29.9098C57.3778 29.5075 57.2955 29.1098 57.1386 28.7394C56.9816 28.3691 56.753 28.0333 56.466 27.7515C56.179 27.4697 55.8392 27.2473 55.466 27.0971C55.0928 26.9469 54.6937 26.8718 54.2914 26.8762V26.865Z" fill="white"/>
</svg>
