<svg width="72" height="72" viewBox="0 0 72 72" fill="none" xmlns="http://www.w3.org/2000/svg">
<rect width="72" height="72" rx="20" fill="#0098EE"/>
<path d="M36.0618 16.6652L35.9135 16.6387V16.6652L18 21.755L19.0377 42.0879C19.0377 42.2204 19.0377 44.7918 19.8037 46.3294C23.6582 54.0967 32.7756 58.8154 35.7159 60.2204C35.7159 60.2204 35.8147 60.2734 35.8888 60.2999V60.353C35.9135 60.353 35.9382 60.3265 35.9629 60.3265C35.9876 60.3265 36.0371 60.353 36.0371 60.353V60.2999C36.1112 60.2734 36.1606 60.2204 36.1853 60.2204C39.1009 58.8154 48.243 54.0967 52.0975 46.3294C52.8634 44.7918 52.9375 42.2204 52.9375 42.0879L54 21.755L36.0618 16.6652ZM25.3631 48.4767V24.8036H45.8957V35.487C45.2533 35.0893 44.5614 34.7977 43.8449 34.6122V26.8714H27.2903V46.2764H35.617C36.0371 47.1247 36.6054 47.867 37.2972 48.4767H25.3631ZM34.7028 42.8301H30.1071V40.7624H34.8511C34.7522 41.2926 34.7028 41.8493 34.7028 42.406C34.6781 42.565 34.6781 42.6976 34.7028 42.8301ZM30.1071 37.1836V35.1158H39.0515C38.0631 35.593 37.1984 36.3088 36.5065 37.1836H30.1071ZM30.1071 31.5371V29.4693H41.5223V31.5371H30.1071ZM42.2141 49.4575C38.6314 49.4575 35.7159 46.3294 35.7159 42.4855C35.7159 38.6416 38.6314 35.5135 42.2141 35.5135C45.7968 35.5135 48.7124 38.6416 48.7124 42.4855C48.7124 46.3294 45.7968 49.4575 42.2141 49.4575ZM42.2141 37.3692C39.5951 37.3692 37.4701 39.649 37.4701 42.459C37.4701 45.269 39.5951 47.5488 42.2141 47.5488C44.8332 47.5488 46.9581 45.269 46.9581 42.459C46.9581 39.649 44.8332 37.3692 42.2141 37.3692ZM44.4379 45.216L43.499 44.7918L43.1036 45.7992L42.2388 43.5989L41.3988 45.7992L41.0034 44.7918L40.0645 45.216L40.8552 43.1748L39.7927 41.2926L41.0281 39.0923H43.499L44.7344 41.2926L43.6472 43.2278L44.4379 45.216Z" fill="white"/>
</svg>
