<svg width="100" height="100" viewBox="0 0 100 100" fill="none" xmlns="http://www.w3.org/2000/svg">
<rect width="100" height="100" rx="15" fill="#1D7AFC"/>
<g clip-path="url(#clip0_1_37472)">
<path d="M62.7508 32.617C62.3812 32.617 62.0577 32.4784 61.7805 32.2012C61.5033 31.924 61.2723 31.6006 61.0875 31.2309C60.9027 30.8613 60.7641 30.4825 60.6717 30.0944C60.5793 29.7063 60.5331 29.3829 60.5331 29.1241V22.3047H60.644C60.9397 22.3047 61.2446 22.3417 61.5588 22.4156C61.8729 22.4896 62.2425 22.6651 62.6676 22.9423C63.0927 23.2195 63.6101 23.6076 64.22 24.1066C64.8298 24.6056 65.5968 25.2617 66.5208 26.0748C67.5188 26.9619 68.3042 27.7104 68.8771 28.3202C69.45 28.9301 69.8936 29.4476 70.2077 29.8726C70.5219 30.2977 70.716 30.658 70.7899 30.9537C70.8638 31.2494 70.9008 31.5082 70.9008 31.7299V32.617H62.7508ZM49.9436 63.8864C49.9436 65.9932 50.3687 67.9522 51.2188 69.7633C52.0689 71.5744 53.2332 73.1268 54.7116 74.4204H36.4157C35.7134 74.4204 34.9465 74.2171 34.1149 73.8106C33.2832 73.404 32.507 72.868 31.7863 72.2027C31.0655 71.5374 30.4649 70.7705 29.9844 69.9019C29.5039 69.0333 29.2637 68.137 29.2637 67.2129V29.4568C29.2637 28.6806 29.4485 27.8674 29.8181 27.0173C30.1877 26.1672 30.6774 25.4003 31.2873 24.7165C31.8972 24.0327 32.5902 23.4598 33.3664 22.9978C34.1426 22.5358 34.9557 22.3047 35.8059 22.3047H56.9848V29.235C56.9848 29.9373 57.0957 30.695 57.3174 31.5082C57.5392 32.3213 57.8903 33.0698 58.3708 33.7536C58.8513 34.4374 59.4612 35.0103 60.2004 35.4723C60.9397 35.9343 61.8083 36.1653 62.8062 36.1653H70.9008V51.5782C69.9028 50.9869 68.8217 50.5341 67.6574 50.2199C66.4931 49.9057 65.2826 49.7486 64.0259 49.7486C61.3647 49.7486 58.953 50.4047 56.7907 51.7168C54.6285 53.029 52.9375 54.7754 51.7178 56.9561H39.6868C38.7258 56.9561 37.9034 57.298 37.2196 57.9818C36.5358 58.6656 36.1939 59.488 36.1939 60.449C36.1939 61.41 36.5358 62.2231 37.2196 62.8884C37.9034 63.5537 38.7258 63.8864 39.6868 63.8864H49.9436ZM39.6868 43.0956C38.7258 43.0956 37.9034 43.4282 37.2196 44.0935C36.5358 44.7588 36.1939 45.572 36.1939 46.533C36.1939 47.494 36.5358 48.3164 37.2196 49.0002C37.9034 49.684 38.7258 50.0259 39.6868 50.0259H60.4776C61.4386 50.0259 62.261 49.684 62.9448 49.0002C63.6286 48.3164 63.9705 47.494 63.9705 46.533C63.9705 45.572 63.6286 44.7588 62.9448 44.0935C62.261 43.4282 61.4386 43.0956 60.4776 43.0956H39.6868ZM76.8885 74.1432C77.406 74.7716 77.6924 75.2983 77.7479 75.7233C77.8033 76.1484 77.6278 76.5827 77.2212 77.0262C76.7776 77.5437 76.2971 77.7839 75.7797 77.747C75.2622 77.71 74.7448 77.4882 74.2273 77.0816L69.5147 72.5354C68.5168 73.1637 67.4356 73.6165 66.2713 73.8937C65.1071 74.1709 63.952 74.2633 62.8062 74.1709C61.6604 74.0785 60.5423 73.7921 59.452 73.3116C58.3616 72.8311 57.3729 72.1288 56.4858 71.2048C55.4878 70.2068 54.7301 69.061 54.2127 67.7674C53.6952 66.4737 53.4365 65.1616 53.4365 63.831C53.4365 62.5003 53.6952 61.1975 54.2127 59.9223C54.7301 58.6471 55.4878 57.4921 56.4858 56.4571C57.4838 55.4592 58.6111 54.7015 59.8678 54.184C61.1245 53.6666 62.4181 53.4078 63.7487 53.4078C65.0793 53.4078 66.3822 53.6666 67.6574 54.184C68.9326 54.7015 70.0691 55.4592 71.0671 56.4571C71.9542 57.3812 72.638 58.3976 73.1185 59.5065C73.599 60.6153 73.8854 61.7519 73.9778 62.9162C74.0702 64.0805 73.9778 65.2355 73.7006 66.3813C73.4234 67.5271 72.9706 68.599 72.3423 69.597L76.8885 74.1432ZM63.8042 70.7058C64.7282 70.7058 65.5968 70.521 66.41 70.1514C67.2231 69.7818 67.9346 69.292 68.5445 68.6822C69.1543 68.0723 69.6348 67.3515 69.986 66.5199C70.3371 65.6883 70.5127 64.792 70.5127 63.831C70.5127 62.9069 70.3371 62.0291 69.986 61.1975C69.6348 60.3658 69.1543 59.6358 68.5445 59.0075C67.9346 58.3791 67.2231 57.8894 66.41 57.5383C65.5968 57.1871 64.7282 57.0116 63.8042 57.0116C62.8432 57.0116 61.9561 57.1871 61.1429 57.5383C60.3298 57.8894 59.6183 58.3791 59.0084 59.0075C58.3986 59.6358 57.9181 60.3658 57.5669 61.1975C57.2158 62.0291 57.0402 62.9069 57.0402 63.831C57.0402 64.792 57.2158 65.6883 57.5669 66.5199C57.9181 67.3515 58.3986 68.0723 59.0084 68.6822C59.6183 69.292 60.3298 69.7818 61.1429 70.1514C61.9561 70.521 62.8432 70.7058 63.8042 70.7058Z" fill="white"/>
</g>
<defs>
<clipPath id="clip0_1_37472">
<rect width="55.5556" height="55.5556" fill="white" transform="translate(22.2227 22.2222)"/>
</clipPath>
</defs>
</svg>
