<svg width="101" height="100" viewBox="0 0 101 100" fill="none" xmlns="http://www.w3.org/2000/svg">
<rect x="0.5" width="100" height="100" rx="15" fill="#1D7AFC"/>
<g clip-path="url(#clip0_20951_19258)">
<path d="M63.2527 32.6169C62.8831 32.6169 62.5597 32.4783 62.2825 32.2011C62.0053 31.9239 61.7743 31.6005 61.5895 31.2309C61.4046 30.8613 61.266 30.4824 61.1736 30.0943C61.0812 29.7062 61.035 29.3828 61.035 29.1241V22.3047H61.1459C61.4416 22.3047 61.7465 22.3416 62.0607 22.4156C62.3749 22.4895 62.7445 22.6651 63.1696 22.9423C63.5946 23.2195 64.1121 23.6076 64.7219 24.1066C65.3318 24.6055 66.0988 25.2616 67.0228 26.0748C68.0208 26.9618 68.8062 27.7103 69.3791 28.3202C69.952 28.93 70.3955 29.4475 70.7097 29.8725C71.0239 30.2976 71.2179 30.658 71.2918 30.9537C71.3658 31.2494 71.4027 31.5081 71.4027 31.7299V32.6169H63.2527ZM50.4456 63.8863C50.4456 65.9931 50.8706 67.9521 51.7207 69.7632C52.5709 71.5743 53.7351 73.1267 55.2136 74.4204H36.9177C36.2154 74.4204 35.4485 74.2171 34.6168 73.8105C33.7852 73.4039 33.009 72.868 32.2882 72.2027C31.5675 71.5374 30.9669 70.7704 30.4864 69.9018C30.0059 69.0332 29.7656 68.1369 29.7656 67.2129V29.4567C29.7656 28.6805 29.9504 27.8674 30.32 27.0173C30.6897 26.1672 31.1794 25.4002 31.7893 24.7164C32.3991 24.0326 33.0922 23.4597 33.8683 22.9977C34.6445 22.5357 35.4577 22.3047 36.3078 22.3047H57.4867V29.235C57.4867 29.9372 57.5976 30.6949 57.8194 31.5081C58.0412 32.3212 58.3923 33.0697 58.8728 33.7535C59.3533 34.4373 59.9631 35.0102 60.7024 35.4722C61.4416 35.9342 62.3102 36.1652 63.3082 36.1652H71.4027V51.5782C70.4048 50.9868 69.3236 50.534 68.1594 50.2198C66.9951 49.9057 65.7846 49.7486 64.5279 49.7486C61.8667 49.7486 59.4549 50.4046 57.2927 51.7168C55.1304 53.0289 53.4394 54.7753 52.2197 56.9561H40.1888C39.2278 56.9561 38.4054 57.298 37.7216 57.9818C37.0378 58.6655 36.6959 59.4879 36.6959 60.4489C36.6959 61.4099 37.0378 62.2231 37.7216 62.8884C38.4054 63.5537 39.2278 63.8863 40.1888 63.8863H50.4456ZM40.1888 43.0955C39.2278 43.0955 38.4054 43.4282 37.7216 44.0935C37.0378 44.7588 36.6959 45.5719 36.6959 46.5329C36.6959 47.4939 37.0378 48.3163 37.7216 49.0001C38.4054 49.6839 39.2278 50.0258 40.1888 50.0258H60.9796C61.9406 50.0258 62.763 49.6839 63.4468 49.0001C64.1306 48.3163 64.4724 47.4939 64.4724 46.5329C64.4724 45.5719 64.1306 44.7588 63.4468 44.0935C62.763 43.4282 61.9406 43.0955 60.9796 43.0955H40.1888ZM77.3905 74.1432C77.9079 74.7715 78.1944 75.2982 78.2498 75.7233C78.3053 76.1483 78.1297 76.5826 77.7231 77.0261C77.2796 77.5436 76.7991 77.7839 76.2816 77.7469C75.7642 77.7099 75.2467 77.4882 74.7293 77.0816L70.0167 72.5353C69.0187 73.1637 67.9376 73.6165 66.7733 73.8937C65.609 74.1709 64.454 74.2633 63.3082 74.1709C62.1624 74.0785 61.0443 73.792 59.9539 73.3115C58.8635 72.831 57.8748 72.1287 56.9877 71.2047C55.9898 70.2068 55.2321 69.0609 54.7146 67.7673C54.1972 66.4736 53.9384 65.1615 53.9384 63.8309C53.9384 62.5003 54.1972 61.1974 54.7146 59.9222C55.2321 58.6471 55.9898 57.492 56.9877 56.4571C57.9857 55.4591 59.113 54.7014 60.3697 54.184C61.6264 53.6665 62.9201 53.4078 64.2507 53.4078C65.5813 53.4078 66.8842 53.6665 68.1594 54.184C69.4345 54.7014 70.5711 55.4591 71.5691 56.4571C72.4561 57.3811 73.1399 58.3976 73.6204 59.5064C74.1009 60.6153 74.3874 61.7518 74.4798 62.9161C74.5722 64.0804 74.4798 65.2354 74.2026 66.3812C73.9253 67.5271 73.4726 68.5989 72.8442 69.5969L77.3905 74.1432ZM64.3061 70.7057C65.2302 70.7057 66.0988 70.5209 66.9119 70.1513C67.7251 69.7817 68.4366 69.292 69.0464 68.6821C69.6563 68.0722 70.1368 67.3515 70.4879 66.5198C70.8391 65.6882 71.0146 64.7919 71.0146 63.8309C71.0146 62.9069 70.8391 62.029 70.4879 61.1974C70.1368 60.3658 69.6563 59.6358 69.0464 59.0074C68.4366 58.3791 67.7251 57.8893 66.9119 57.5382C66.0988 57.1871 65.2302 57.0115 64.3061 57.0115C63.3451 57.0115 62.458 57.1871 61.6449 57.5382C60.8317 57.8893 60.1202 58.3791 59.5104 59.0074C58.9005 59.6358 58.42 60.3658 58.0689 61.1974C57.7177 62.029 57.5422 62.9069 57.5422 63.8309C57.5422 64.7919 57.7177 65.6882 58.0689 66.5198C58.42 67.3515 58.9005 68.0722 59.5104 68.6821C60.1202 69.292 60.8317 69.7817 61.6449 70.1513C62.458 70.5209 63.3451 70.7057 64.3061 70.7057Z" fill="white"/>
</g>
<defs>
<clipPath id="clip0_20951_19258">
<rect width="55.5556" height="55.5556" fill="white" transform="translate(22.7188 22.2227)"/>
</clipPath>
</defs>
</svg>
