<svg width="72" height="72" viewBox="0 0 72 72" fill="none" xmlns="http://www.w3.org/2000/svg">
<rect width="72" height="72" rx="20" fill="#EC3A4E"/>
<path d="M0 36C0 45.5478 3.79285 54.7045 10.5442 61.4558C17.2955 68.2072 26.4522 72 36 72C45.5478 72 54.7045 68.2072 61.4558 61.4558C68.2072 54.7045 72 45.5478 72 36C72 26.4522 68.2072 17.2955 61.4558 10.5442C54.7045 3.79285 45.5478 0 36 0C26.4522 0 17.2955 3.79285 10.5442 10.5442C3.79285 17.2955 0 26.4522 0 36Z" fill="#EC3A4E"/>
<path d="M54.4376 33.3564H43.8806V17.2838C43.8806 16.6781 43.6466 16.0972 43.2302 15.6689C42.8138 15.2406 42.2491 15 41.6602 15H29.0923C28.548 15.0638 28.0459 15.3323 27.6824 15.7538C27.3189 16.1754 27.1198 16.7203 27.1234 17.2838V33.3564H16.5663C16.1674 33.3427 15.7739 33.4539 15.4379 33.6754C15.1018 33.8969 14.8392 34.2182 14.6847 34.5967C14.5302 34.9752 14.4912 35.3931 14.5729 35.7949C14.6546 36.1967 14.853 36.5636 15.142 36.8467L34.0776 56.3666C34.4649 56.7361 34.9737 56.9414 35.502 56.9414C36.0302 56.9414 36.539 56.7361 36.9263 56.3666L55.8619 36.8467C56.1509 36.5636 56.3493 36.1967 56.431 35.7949C56.5127 35.3931 56.4737 34.9752 56.3192 34.5967C56.1647 34.2182 55.9021 33.8969 55.566 33.6754C55.23 33.4539 54.8365 33.3427 54.4376 33.3564Z" fill="white"/>
</svg>
