<svg width="72" height="72" viewBox="0 0 72 72" fill="none" xmlns="http://www.w3.org/2000/svg">
<rect width="72" height="72" rx="20" fill="#00BFFF"/>
<path d="M23.2937 48.8442C22.4119 47.9624 22.5415 45.706 22.5415 45.706L22.4897 31.5189C22.4897 31.1818 22.2044 30.8965 21.8672 30.8965H13.5158C12.1412 30.8965 11 32.0117 11 33.4123V52.6828C11 54.3946 12.4005 55.7951 14.1123 55.7951H17.095C17.2765 55.7951 17.4581 55.8729 17.5878 56.0285L19.1699 58.0775C19.3773 58.3368 19.7405 58.3887 20.0257 58.2072L23.1381 55.9248C23.2418 55.847 23.3715 55.7951 23.5012 55.7951H34.3424C36.0542 55.7951 37.4548 54.3946 37.4548 52.6828V50.7116C37.4548 50.3745 37.1695 50.0892 36.8323 50.0892H26.406C26.406 50.0892 24.2793 50.0892 23.2937 48.8442Z" fill="white" fill-opacity="0.5"/>
<path d="M57.5296 13H28.3256C26.4582 13 24.8242 14.5043 24.8242 16.5014V44.3308C24.8242 46.0944 26.3285 47.8321 28.3256 47.8321H44.1725C44.3022 47.8321 44.4319 47.884 44.5356 47.9618L49.0226 51.2557C49.2819 51.4632 49.671 51.4113 49.8784 51.126L52.2127 48.0915C52.3164 47.9359 52.498 47.8581 52.7055 47.8581H57.6593C59.5267 47.8581 61.1606 46.3538 61.1606 44.3567V16.3717C61.031 14.5043 59.397 13 57.5296 13ZM44.3541 38.2877C44.3541 39.0139 43.7575 39.6104 43.0313 39.6104H42.9276C42.2014 39.6104 41.6048 39.0139 41.6048 38.2877C41.6048 37.5614 42.2014 36.9649 42.9276 36.9649H43.0313C43.7575 36.9908 44.3541 37.5614 44.3541 38.2877ZM49.6191 25.8643C49.6191 28.5616 47.9851 30.844 45.6768 31.8814C45.6768 31.8814 44.3541 32.3742 44.3541 33.1783V34.0341C44.3541 34.6047 43.7575 35.2272 43.0313 35.2272C42.3051 35.2272 41.7086 34.6047 41.7086 34.0341V32.9708C41.7086 31.5962 42.772 30.3253 44.3022 29.7028C46.0659 28.9766 46.9736 27.5761 46.9736 25.8643C46.9736 23.6597 45.21 21.8961 43.0054 21.8961C40.8008 21.8961 39.0372 23.6597 39.0372 25.8643C39.0372 26.5905 38.4406 27.187 37.7144 27.187C36.9882 27.187 36.3917 26.5905 36.3917 25.8643C36.3917 22.2332 39.3484 19.2765 42.9795 19.2765C46.6105 19.2765 49.5672 22.2332 49.6191 25.8643Z" fill="white"/>
</svg>
