<svg width="72" height="72" viewBox="0 0 72 72" fill="none" xmlns="http://www.w3.org/2000/svg">
<g clip-path="url(#clip0_17407_5528)">
<rect width="72" height="72" rx="20" fill="#00CCC6"/>
<path d="M0.449219 35.8513C0.449012 40.5006 1.36457 45.1044 3.14362 49.3998C4.92267 53.6952 7.53036 57.5981 10.8178 60.8857C14.1053 64.1733 18.0081 66.7811 22.3034 68.5604C26.5987 70.3396 31.2025 71.2554 35.8517 71.2554C40.501 71.2554 45.1047 70.3396 49.4 68.5604C53.6954 66.7811 57.5982 64.1733 60.8856 60.8857C64.1731 57.5981 66.7807 53.6952 68.5598 49.3998C70.3388 45.1044 71.2544 40.5006 71.2542 35.8513C71.2544 31.2021 70.3388 26.5983 68.5598 22.3029C66.7807 18.0075 64.1731 14.1046 60.8856 10.817C57.5982 7.52938 53.6954 4.92151 49.4 3.14227C45.1047 1.36303 40.501 0.447266 35.8517 0.447266C31.2025 0.447266 26.5987 1.36303 22.3034 3.14227C18.0081 4.92151 14.1053 7.52938 10.8178 10.817C7.53036 14.1046 4.92267 18.0075 3.14362 22.3029C1.36457 26.5983 0.449012 31.2021 0.449219 35.8513Z" fill="#00CCC6"/>
<path d="M37.6372 21.9738L37.6413 21.97C42.7969 16.8137 49.9666 14.9801 56.3402 16.537C57.8974 22.9109 56.0635 30.0803 50.9075 35.2362C50.8362 35.3075 50.7646 35.3782 50.6924 35.4482L47.8569 38.284L50.2011 42.4256C50.5493 43.0407 50.7166 43.7417 50.6839 44.4477C50.6511 45.1538 50.4196 45.8362 50.016 46.4165L43.8466 55.2866C42.6637 56.9876 40.3251 57.4075 38.6238 56.2246C38.562 56.1815 38.5015 56.1366 38.4424 56.0899L38.4584 56.0698C38.0249 55.7987 37.7096 55.3742 37.5751 54.8809C37.4406 54.3877 37.4968 53.8619 37.7326 53.4082C37.7312 53.4076 37.7297 53.407 37.7282 53.4063C38.9496 51.3213 39.0969 48.594 38.2679 45.8111C35.2395 46.4865 31.9416 45.6454 29.5851 43.2892C27.2293 40.9334 26.3885 37.6364 27.0627 34.6086C24.2813 33.7806 21.5553 33.9282 19.4712 35.149C19.4705 35.1475 19.4699 35.146 19.4693 35.1446C19.0157 35.3804 18.4899 35.4367 17.9966 35.3023C17.5034 35.1678 17.0789 34.8525 16.8077 34.4191L16.7902 34.4329C15.6463 32.9608 15.7505 30.8329 17.1029 29.4805C17.2602 29.3232 17.4311 29.1801 17.6138 29.0531L26.4889 22.8806C27.0679 22.4778 27.7487 22.2464 28.4532 22.2129C29.1576 22.1794 29.8573 22.3451 30.4719 22.6911L34.5957 25.0125L37.545 22.0632C37.5753 22.0325 37.6063 22.0028 37.6372 21.9738ZM24.8607 40.4841C25.7341 42.7314 26.6824 44.3665 27.7056 45.3896C28.7077 46.3918 30.2509 47.276 32.3353 48.0421C32.4937 48.1004 32.6334 48.2002 32.7398 48.3312C32.8462 48.4622 32.9153 48.6195 32.9398 48.7865C32.9643 48.9535 32.9433 49.124 32.879 49.28C32.8147 49.4361 32.7095 49.5719 32.5745 49.6731L29.0148 52.3426C28.8604 52.4583 28.6741 52.5236 28.4812 52.5296C28.2883 52.5356 28.0983 52.4819 27.937 52.376C27.7758 52.27 27.6511 52.1169 27.58 51.9375C27.5089 51.7581 27.4949 51.5612 27.5398 51.3735L27.6952 50.725C27.7376 50.5485 27.7278 50.3634 27.667 50.1924C27.6063 50.0213 27.4972 49.8715 27.353 49.7612C27.2088 49.6509 27.0357 49.5848 26.8546 49.571C26.6736 49.5571 26.4925 49.5961 26.3332 49.6831L23.1934 51.3992C23.0156 51.4963 22.811 51.5332 22.6105 51.5043C22.4099 51.4755 22.224 51.3825 22.0807 51.2392C21.9374 51.0959 21.8444 50.9101 21.8155 50.7095C21.7866 50.509 21.8234 50.3044 21.9205 50.1265L23.7516 46.7757C23.8351 46.623 23.8745 46.4499 23.8653 46.2761C23.8561 46.1022 23.7986 45.9343 23.6994 45.7912C23.6002 45.6481 23.4631 45.5355 23.3035 45.4658C23.1439 45.3962 22.9681 45.3724 22.7957 45.3971L21.2163 45.6232C21.0326 45.6495 20.8452 45.6207 20.6779 45.5405C20.5106 45.4603 20.3708 45.3323 20.2762 45.1726C20.1816 45.0129 20.1366 44.8288 20.1467 44.6435C20.1568 44.4582 20.2216 44.2801 20.3329 44.1316L23.2357 40.2611C23.336 40.1273 23.4704 40.0228 23.6247 39.9583C23.7791 39.8939 23.9479 39.8719 24.1136 39.8947C24.2793 39.9174 24.436 39.984 24.5673 40.0877C24.6986 40.1913 24.7998 40.3282 24.8604 40.4841H24.8607ZM42.1894 30.6878C43.6547 32.1534 46.0305 32.1534 47.4957 30.6878C48.9613 29.2229 48.9613 26.847 47.4957 25.3815C46.0305 23.9162 43.6547 23.9162 42.1894 25.3815C40.7241 26.847 40.7241 29.2229 42.1894 30.6878Z" fill="white"/>
</g>
<defs>
<clipPath id="clip0_17407_5528">
<rect width="72" height="72" rx="20" fill="white"/>
</clipPath>
</defs>
</svg>
