<svg width="72" height="72" viewBox="0 0 72 72" fill="none" xmlns="http://www.w3.org/2000/svg">
<rect x="0.25" y="0.25" width="71.5" height="71.5" rx="19.75" fill="#5A82F2"/>
<rect x="0.25" y="0.25" width="71.5" height="71.5" rx="19.75" stroke="#EAEAEA" stroke-width="0.5"/>
<path d="M19.2442 16.041H34.1627C34.8221 16.041 35.4545 16.303 35.9208 16.7693C36.3871 17.2356 36.6491 17.868 36.6491 18.5274V33.4459C36.6491 34.1053 36.3871 34.7377 35.9208 35.204C35.4545 35.6703 34.8221 35.9323 34.1627 35.9323H19.2442C18.5848 35.9323 17.9524 35.6703 17.4861 35.204C17.0198 34.7377 16.7578 34.1053 16.7578 33.4459V18.5274C16.7578 17.868 17.0198 17.2356 17.4861 16.7693C17.9524 16.303 18.5848 16.041 19.2442 16.041ZM19.2442 38.4187H34.1627C34.8221 38.4187 35.4545 38.6807 35.9208 39.147C36.3871 39.6132 36.6491 40.2457 36.6491 40.9051V53.3372C36.6491 53.9966 36.3871 54.629 35.9208 55.0953C35.4545 55.5616 34.8221 55.8236 34.1627 55.8236H19.2442C18.5848 55.8236 17.9524 55.5616 17.4861 55.0953C17.0198 54.629 16.7578 53.9966 16.7578 53.3372V40.9051C16.7578 40.2457 17.0198 39.6132 17.4861 39.147C17.9524 38.6807 18.5848 38.4187 19.2442 38.4187ZM41.6219 30.9595H54.054C54.7134 30.9595 55.3458 31.2214 55.8121 31.6877C56.2784 32.154 56.5404 32.7864 56.5404 33.4459V53.3372C56.5404 53.9966 56.2784 54.629 55.8121 55.0953C55.3458 55.5616 54.7134 55.8236 54.054 55.8236H41.6219C40.9625 55.8236 40.33 55.5616 39.8638 55.0953C39.3975 54.629 39.1355 53.9966 39.1355 53.3372V33.4459C39.1355 32.7864 39.3975 32.154 39.8638 31.6877C40.33 31.2214 40.9625 30.9595 41.6219 30.9595ZM41.6219 16.041H54.054C54.7134 16.041 55.3458 16.303 55.8121 16.7693C56.2784 17.2356 56.5404 17.868 56.5404 18.5274V25.9867C56.5404 26.6461 56.2784 27.2785 55.8121 27.7448C55.3458 28.2111 54.7134 28.4731 54.054 28.4731H41.6219C40.9625 28.4731 40.33 28.2111 39.8638 27.7448C39.3975 27.2785 39.1355 26.6461 39.1355 25.9867V18.5274C39.1355 17.868 39.3975 17.2356 39.8638 16.7693C40.33 16.303 40.9625 16.041 41.6219 16.041Z" fill="white"/>
</svg>
