<svg width="72" height="72" viewBox="0 0 72 72" fill="none" xmlns="http://www.w3.org/2000/svg">
<rect width="72" height="72" rx="20" fill="#74BC1F"/>
<path d="M23.8935 22C15.959 22 11 27.3973 11 35.9764C11 44.6263 15.959 50 23.8935 50C31.7807 50 36.7634 44.6263 36.7634 35.9764C36.7634 27.3973 31.7807 22 23.8935 22ZM49.4916 22C43.588 22 39.3846 25.2525 39.3846 30.0842C39.3846 33.9259 41.7696 36.33 46.7759 37.4848L50.2945 38.3333C53.7186 39.1111 55.1118 40.2424 55.1118 42.1987C55.1118 44.4613 52.8212 46.064 49.5624 46.064C46.2328 46.064 43.7296 44.4377 43.4699 41.9394H38.747C38.9359 46.936 43.0448 50 49.279 50C55.8675 50 60 46.771 60 41.633C60 37.6027 57.6386 35.3165 52.16 34.0673L49.0193 33.3603C45.6896 32.5589 44.32 31.4983 44.32 29.7071C44.32 27.4444 46.3981 25.936 49.4679 25.936C52.5614 25.936 54.6867 27.468 54.9229 29.9899H59.5513C59.4332 25.229 55.4896 22 49.4916 22ZM23.8935 26.1246C28.7108 26.1246 31.8043 29.9663 31.8043 35.9764C31.8043 42.0337 28.7108 45.8754 23.8935 45.8754C19.0289 45.8754 15.959 42.0337 15.959 35.9764C15.959 29.9663 19.0289 26.1246 23.8935 26.1246Z" fill="white"/>
</svg>
