<svg width="24" height="24" viewBox="0 0 24 24" fill="none" xmlns="http://www.w3.org/2000/svg">
<path d="M11.999 1C5.92513 1 1 5.93377 1 12.0214C1 16.892 4.15078 21.0226 8.52304 22.4813C9.07209 22.58 9.24617 22.2551 9.24617 21.9628C9.24617 21.7002 9.25191 20.9689 9.24617 20.0489C6.18722 20.714 5.55304 18.5969 5.55304 18.5969C5.05278 17.3232 4.33348 16.9849 4.33348 16.9849C3.33391 16.3006 4.40713 16.315 4.40713 16.315C5.51 16.3917 6.09252 17.4497 6.09252 17.4497C7.07391 19.1346 8.66652 18.6477 9.29304 18.366C9.39443 17.6548 9.67756 17.167 9.99226 16.8939C7.5493 16.614 4.982 15.67 4.982 11.4445C4.982 10.2417 5.41052 9.25841 6.11452 8.48691C6.00165 8.20994 5.62287 7.08767 6.22165 5.57054C6.22165 5.57054 7.14661 5.2744 9.24617 6.70144C10.144 6.45609 11.0703 6.33105 12.001 6.32959C12.9345 6.33438 13.8757 6.45609 14.7557 6.70144C16.8553 5.27536 17.7774 5.57054 17.7774 5.57054C18.3771 7.08767 17.9993 8.20994 17.8864 8.48691C18.5904 9.25841 19.018 10.2417 19.018 11.4445C19.018 15.6806 16.4459 16.6112 13.9953 16.8824C14.3894 17.2245 14.7481 17.8858 14.7481 18.9142V21.9657C14.7481 22.2608 14.926 22.5857 15.4846 22.4794C19.8521 21.0197 23 16.89 23 12.0214C23 5.93377 18.0758 1 11.999 1Z" fill="black"/>
</svg>
