<svg width="24" height="25" viewBox="0 0 24 25" fill="none" xmlns="http://www.w3.org/2000/svg">
<path d="M11.9985 1C5.64851 1 0.499512 6.148 0.499512 12.5C0.499512 17.582 3.79351 21.892 8.36451 23.414C8.93851 23.517 9.12051 23.178 9.12051 22.873C9.12051 22.599 9.12651 21.836 9.12051 20.876C5.92251 21.57 5.25951 19.361 5.25951 19.361C4.73651 18.032 3.98451 17.679 3.98451 17.679C2.93951 16.965 4.06151 16.98 4.06151 16.98C5.21451 17.06 5.82351 18.164 5.82351 18.164C6.84951 19.922 8.51451 19.414 9.16951 19.12C9.27551 18.378 9.57151 17.869 9.90051 17.584C7.34651 17.292 4.66251 16.307 4.66251 11.898C4.66251 10.643 5.11051 9.617 5.84651 8.812C5.72851 8.523 5.33251 7.352 5.95851 5.769C5.95851 5.769 6.92551 5.46 9.12051 6.949C10.0592 6.693 11.0276 6.56253 12.0005 6.561C12.9765 6.566 13.9605 6.693 14.8805 6.949C17.0755 5.461 18.0395 5.769 18.0395 5.769C18.6665 7.352 18.2715 8.523 18.1535 8.812C18.8895 9.617 19.3365 10.643 19.3365 11.898C19.3365 16.318 16.6475 17.289 14.0855 17.572C14.4975 17.929 14.8725 18.619 14.8725 19.692V22.876C14.8725 23.184 15.0585 23.523 15.6425 23.412C20.2085 21.889 23.4995 17.58 23.4995 12.5C23.4995 6.148 18.3515 1 11.9985 1Z" fill="white"/>
</svg>
