<svg width="24" height="25" viewBox="0 0 24 25" fill="none" xmlns="http://www.w3.org/2000/svg">
<path d="M1.07324 11.2732C1.55296 5.76164 6.36844 1.59686 11.4535 1.5C11.8601 1.6153 12.2667 1.60608 12.6688 1.50461C14.0805 1.55996 15.4329 1.8782 16.6756 2.55619C17.3929 2.94361 18.0965 3.34025 18.7589 3.8522C21.4682 5.9369 22.8525 8.72726 22.9896 12.0665C23.1312 15.4702 21.8474 18.3851 19.2889 20.6728C17.1873 22.5545 14.7064 23.5046 11.9058 23.5C6.37758 23.4908 1.58037 19.1415 1.07781 13.7407C1.16919 12.9197 1.17375 12.0941 1.07324 11.2732Z" fill="white"/>
<path d="M1.0731 11.2734C1.31068 12.0944 1.30154 12.9154 1.07767 13.7409C0.972587 12.92 0.977156 12.0944 1.0731 11.2734Z" fill="white"/>
<path d="M12.6694 1.50461C12.2628 1.73522 11.8562 1.73983 11.4541 1.5C11.8607 1.5 12.2673 1.50461 12.6694 1.50461Z" fill="white"/>
<path d="M8.2414 14.1328C7.44187 13.8561 6.6332 13.5886 5.83823 13.298C5.57324 13.2012 5.18033 13.1689 5.16205 12.8276C5.13921 12.4402 5.54583 12.3479 5.82909 12.228C8.18201 11.2502 10.5395 10.2863 12.8924 9.32233C13.9204 8.90263 14.9575 8.49214 15.9855 8.06783C16.351 7.92024 16.7028 7.79571 17.0637 8.06321C17.2373 8.28921 17.2099 8.52443 17.082 8.75965C16.5566 11.2917 16.0311 13.8192 15.5103 16.3513C15.4189 16.7848 15.355 17.223 15.2453 17.6473C15.026 18.5374 14.6194 18.6896 13.8655 18.15C12.9883 17.5181 12.2162 16.7479 11.2751 16.1991C10.6263 15.9777 10.1146 15.5857 9.79478 14.9584C10.078 14.0913 10.8365 13.6163 11.4395 13.0397C12.4173 12.1173 13.3995 11.1995 14.158 10.4892C12.6183 11.61 10.7177 12.7399 8.89473 13.9806C8.70285 14.119 8.49725 14.2573 8.2414 14.1328Z" fill="#A5A5A5"/>
<path d="M8.24121 14.1334C10.4205 12.7175 12.5998 11.297 14.802 9.86719C13.9933 10.7435 13.2531 11.6613 12.3942 12.45C11.5079 13.2664 10.6352 14.0873 9.85398 15.0051C9.97734 15.6232 9.9682 16.2458 9.84942 16.8546C9.78545 17.1729 9.80373 17.5926 9.33315 17.6664C8.82601 16.5364 8.54275 15.3326 8.24121 14.1334Z" fill="#999999"/>
<path d="M9.33789 17.669C9.66684 17.1294 9.67141 16.5252 9.68969 15.9164C9.69882 15.612 9.57547 15.2661 9.85416 15.0078C10.3293 15.4091 10.7999 15.8057 11.275 16.207C10.9689 16.742 10.4892 17.111 10.0552 17.5168C9.88157 17.6736 9.64857 17.9873 9.33789 17.669Z" fill="#666666"/>
<path d="M17.0778 8.76284C17.0733 8.53223 17.0687 8.29701 17.0596 8.06641C17.2834 8.29701 17.4159 8.52301 17.0778 8.76284Z" fill="white"/>
</svg>
