<svg width="24" height="25" viewBox="0 0 24 25" fill="none" xmlns="http://www.w3.org/2000/svg">
<g clip-path="url(#clip0_7751_27866)">
<path d="M16.2197 8.55316C16.4968 8.55316 16.7701 8.57343 17.0407 8.60285C16.3034 5.20491 12.6315 2.67969 8.4407 2.67969C3.755 2.67969 -0.0834961 5.84031 -0.0834961 9.85335C-0.0834961 12.1694 1.19382 14.0717 3.3275 15.5471L2.47507 18.0851L5.45463 16.6061C6.52147 16.8146 7.37647 17.0296 8.4407 17.0296C8.70806 17.0296 8.97279 17.0166 9.23624 16.9957C9.06954 16.4322 8.97279 15.8413 8.97279 15.2287C8.97282 11.5438 12.1707 8.55316 16.2197 8.55316ZM11.6373 6.26588C12.2792 6.26588 12.7041 6.68424 12.7041 7.31899C12.7041 7.95111 12.2792 8.3747 11.6373 8.3747C10.9979 8.3747 10.3573 7.95111 10.3573 7.31899C10.3573 6.68424 10.998 6.26588 11.6373 6.26588ZM5.67165 8.37467C5.03231 8.37467 4.38777 7.95108 4.38777 7.31896C4.38777 6.68421 5.03231 6.26585 5.67165 6.26585C6.31028 6.26585 6.73586 6.68421 6.73586 7.31896C6.73586 7.95111 6.31028 8.37467 5.67165 8.37467ZM24 15.1274C24 11.755 20.5897 9.00617 16.7597 9.00617C12.7041 9.00617 9.51014 11.755 9.51014 15.1274C9.51014 18.5047 12.7041 21.2476 16.7597 21.2476C17.6081 21.2476 18.4645 21.0371 19.3169 20.8254L21.6552 22.0922L21.0139 19.9847C22.7253 18.7139 24 17.0296 24 15.1274ZM14.4089 14.0717C13.9847 14.0717 13.5565 13.654 13.5565 13.2277C13.5565 12.8074 13.9847 12.3845 14.4089 12.3845C15.0535 12.3845 15.4758 12.8074 15.4758 13.2277C15.4758 13.654 15.0535 14.0717 14.4089 14.0717ZM19.0972 14.0717C18.6763 14.0717 18.2507 13.654 18.2507 13.2277C18.2507 12.8074 18.6763 12.3845 19.0972 12.3845C19.7366 12.3845 20.1641 12.8074 20.1641 13.2277C20.1641 13.654 19.7366 14.0717 19.0972 14.0717Z" fill="white"/>
</g>
<defs>
<clipPath id="clip0_7751_27866">
<rect width="24" height="24" fill="white" transform="translate(0 0.5)"/>
</clipPath>
</defs>
</svg>
