<svg width="24" height="24" viewBox="0 0 24 24" fill="none" xmlns="http://www.w3.org/2000/svg">
<path d="M11.6573 1.72852C11.6665 1.72852 11.6757 1.72852 11.6894 1.72852C11.7215 1.74227 11.7536 1.7331 11.7903 1.73768C11.8269 1.73768 11.859 1.73768 11.8957 1.73768C11.9736 1.73768 12.0515 1.73768 12.1294 1.73768C12.1661 1.73768 12.2028 1.73768 12.2394 1.73768C12.2715 1.73768 12.299 1.73768 12.3311 1.73768C13.3028 1.73768 14.2103 1.98518 15.0582 2.45268C15.5578 2.72768 16.0023 3.0806 16.3919 3.4931C16.7678 3.88727 17.0794 4.33185 17.3407 4.80852C17.8861 5.8031 18.1978 6.87102 18.3536 7.98935C18.3994 8.32852 18.4315 8.67227 18.4498 9.01143C18.4728 9.41935 18.4544 9.82727 18.4636 10.2306C18.4636 10.2581 18.4636 10.2856 18.4498 10.3131C18.4361 10.3681 18.3903 10.3773 18.3444 10.391C17.9823 10.4964 17.6157 10.5881 17.249 10.666C16.5798 10.8127 15.9015 10.9364 15.2232 11.0281C14.7603 11.0877 14.2928 11.1427 13.8253 11.1793C13.4723 11.2068 13.1148 11.2252 12.7619 11.2435C12.3128 11.2664 11.8636 11.2618 11.419 11.2527C11.0203 11.2435 10.6215 11.216 10.2228 11.1839C9.52151 11.1289 8.82026 11.0464 8.12818 10.9318C7.31693 10.7989 6.51026 10.6293 5.72193 10.4048C5.67151 10.391 5.61651 10.3773 5.5936 10.3223C5.57526 10.2948 5.57526 10.2627 5.57526 10.2352C5.57526 9.8731 5.56151 9.50643 5.57985 9.14435C5.60735 8.46602 5.68985 7.79685 5.83651 7.13685C5.9786 6.49977 6.18026 5.88102 6.45526 5.28977C6.71651 4.72143 7.04651 4.19435 7.45443 3.71768C7.7936 3.31893 8.1786 2.97518 8.61401 2.68185C9.12276 2.34268 9.67276 2.09518 10.2594 1.93935C10.6078 1.84768 10.9561 1.77893 11.3182 1.75143C11.4144 1.73768 11.5382 1.74227 11.6573 1.72852Z" fill="#040000"/>
<path d="M20.6152 17.9499C20.5832 18.037 20.5923 18.1333 20.5694 18.225C20.5511 18.312 20.5282 18.3991 20.4869 18.477C20.4365 18.5733 20.3769 18.5916 20.2761 18.5504C20.1202 18.4816 20.0011 18.3624 19.8865 18.2433C19.4923 17.817 19.1623 17.3404 18.8415 16.8591C18.759 16.7354 18.6811 16.6116 18.594 16.4741C18.5802 16.6529 18.5757 16.8179 18.5527 16.9783C18.484 17.5145 18.3236 18.0233 18.0944 18.5091C17.7277 19.2883 17.2144 19.9575 16.559 20.5166C16.5544 20.5212 16.5544 20.5258 16.5498 20.5304C16.5452 20.5625 16.5223 20.5762 16.4994 20.5945C15.7752 21.1904 14.9502 21.5937 14.0473 21.8366C13.644 21.942 13.2315 22.0154 12.819 22.0566C12.5532 22.0841 12.2873 22.0979 12.0261 22.0749C11.9986 22.0749 11.9757 22.0749 11.9482 22.0749C11.6502 22.0979 11.3569 22.0795 11.059 22.0474C10.5227 21.9879 9.99566 21.8825 9.48233 21.7083C8.749 21.4608 8.07983 21.0987 7.47941 20.6083C7.45191 20.5854 7.42441 20.5716 7.41525 20.5349C7.11275 20.2691 6.82858 19.9804 6.5765 19.6595C6.01275 18.9399 5.62775 18.1333 5.449 17.2349C5.40316 17.0104 5.38025 16.7812 5.37566 16.5474C5.37566 16.5291 5.37108 16.5108 5.37108 16.4924C5.34358 16.5062 5.33441 16.5291 5.32066 16.552C4.9815 17.0791 4.63316 17.6016 4.22525 18.0783C4.1015 18.2249 3.97316 18.3624 3.82191 18.477C3.77608 18.5091 3.73025 18.5412 3.67525 18.5595C3.58358 18.5916 3.53316 18.5779 3.48275 18.4908C3.42316 18.3854 3.40025 18.2708 3.38191 18.1562C3.32233 17.7162 3.359 17.2762 3.41858 16.8408C3.59275 15.5941 3.98233 14.4024 4.41775 13.2245C4.49108 13.032 4.55525 12.8349 4.64233 12.6516C4.67441 12.6333 4.7065 12.647 4.73858 12.6562C5.44441 12.867 6.164 13.0412 6.88358 13.1924C6.92941 13.2016 6.97983 13.2108 7.02566 13.2199C7.05775 13.2245 7.08983 13.2337 7.11275 13.2658C7.13566 13.3804 7.099 13.4904 7.08525 13.6004C7.05775 13.857 7.03483 14.1091 7.01191 14.3658C6.97525 14.8333 6.97525 15.2962 6.98441 15.7637C7.00275 16.5704 7.10816 17.3633 7.37858 18.1241C7.594 18.7291 7.8965 19.2883 8.32275 19.7741C8.97358 20.512 9.78941 20.975 10.7519 21.1858C11.0911 21.2591 11.4348 21.2958 11.7786 21.3095C12.3377 21.3325 12.8832 21.2729 13.4194 21.1308C14.084 20.9566 14.6798 20.645 15.1977 20.1958C15.6148 19.8337 15.9448 19.4029 16.2107 18.9216C16.5819 18.2387 16.7882 17.5054 16.8844 16.7399C16.9165 16.4833 16.9302 16.2266 16.9486 15.9654C16.9715 15.5712 16.9669 15.177 16.9577 14.7829C16.944 14.3154 16.9027 13.8524 16.834 13.3941C16.8294 13.3574 16.8202 13.3254 16.8294 13.2887C16.8432 13.2337 16.8936 13.2337 16.9348 13.2245C17.439 13.1237 17.9432 13.0045 18.4382 12.8762C18.6902 12.812 18.9423 12.7387 19.1944 12.6654C19.2311 12.6562 19.2677 12.6379 19.309 12.647C19.3502 12.6654 19.3594 12.7112 19.3732 12.7479C19.4969 13.0641 19.6115 13.3849 19.7261 13.7058C19.9415 14.3016 20.1294 14.9066 20.2852 15.5254C20.409 16.002 20.5052 16.4879 20.5648 16.9783C20.5832 17.1112 20.5832 17.2487 20.5877 17.3816C20.5877 17.4045 20.5786 17.432 20.5969 17.4549C20.5969 17.4962 20.5969 17.5374 20.5969 17.5787C20.5832 17.6658 20.5832 17.7529 20.5969 17.8399C20.6152 17.8674 20.6152 17.9087 20.6152 17.9499Z" fill="#040000"/>
<path d="M12.1427 1.74227C12.0602 1.74227 11.9777 1.74227 11.8952 1.74227C11.8906 1.73768 11.8906 1.73768 11.8906 1.7331C11.8906 1.72852 11.8952 1.72852 11.8952 1.72852C11.9777 1.72852 12.0602 1.72852 12.1427 1.72852C12.1473 1.7331 12.1473 1.73768 12.1473 1.73768C12.1427 1.74227 12.1427 1.74227 12.1427 1.74227Z" fill="#040000"/>
<path d="M11.8724 1.72852C11.8724 1.7331 11.8724 1.73768 11.8724 1.74227C11.8357 1.74227 11.7991 1.74227 11.7624 1.74227C11.7578 1.73768 11.7578 1.73768 11.7578 1.7331C11.7578 1.72852 11.7624 1.72852 11.7624 1.72852C11.7991 1.72852 11.8357 1.72852 11.8724 1.72852Z" fill="#040000"/>
<path d="M12.1172 1.74227C12.1172 1.73768 12.1172 1.7331 12.1172 1.72852C12.1539 1.72852 12.1905 1.72852 12.2226 1.72852C12.2272 1.72852 12.2272 1.7331 12.2272 1.73768C12.2272 1.74227 12.2272 1.74227 12.2226 1.74227C12.1859 1.74227 12.1539 1.74227 12.1172 1.74227Z" fill="#040000"/>
<path d="M11.7635 1.72852C11.7635 1.7331 11.7635 1.73768 11.7635 1.74227C11.7315 1.73768 11.6994 1.76518 11.6719 1.72852C11.704 1.72852 11.736 1.72852 11.7635 1.72852Z" fill="#040000"/>
<path d="M12.2422 1.74227C12.2422 1.73768 12.2422 1.7331 12.2422 1.72852C12.2743 1.72852 12.3018 1.72852 12.3339 1.72852C12.3339 1.7331 12.3339 1.73768 12.3339 1.74227C12.3064 1.74227 12.2743 1.74227 12.2422 1.74227Z" fill="#040000"/>
<path d="M18.4297 10.3327C18.6589 10.9102 18.8926 11.4877 19.1218 12.0652C19.1997 12.2577 19.273 12.4502 19.3464 12.6427C18.5443 12.881 17.7376 13.0781 16.9172 13.2431C16.9034 13.2477 16.8851 13.2477 16.8759 13.2615C16.8576 13.2844 16.8255 13.289 16.798 13.2935C16.0097 13.4494 15.2122 13.5685 14.4147 13.6556C14.0159 13.7015 13.6126 13.7335 13.2139 13.7565C13.0626 13.7656 12.9114 13.7794 12.7601 13.7748C12.4759 13.7702 12.1918 13.7977 11.9076 13.7885C11.6097 13.7794 11.3072 13.7748 11.0093 13.761C10.7847 13.7519 10.8214 13.7473 10.8214 13.9398C10.8214 14.7373 10.8214 15.5394 10.8214 16.3369C10.8214 16.5019 10.8122 16.5065 10.6472 16.5294C10.2072 16.5844 9.76719 16.5844 9.32719 16.5706C8.90552 16.5569 8.48844 16.511 8.07594 16.4423C7.95677 16.424 7.94302 16.4056 7.94302 16.2773C7.94302 15.4981 7.94302 14.7144 7.94302 13.9352C7.94302 13.7931 7.94302 13.6556 7.94302 13.5135C7.94302 13.4494 7.9201 13.4219 7.85594 13.4081C7.64969 13.3715 7.44802 13.3394 7.24635 13.2935C7.21427 13.2844 7.17302 13.2844 7.1501 13.2523C6.9301 13.2065 6.7101 13.156 6.49469 13.1102C5.8851 12.9727 5.2801 12.8169 4.67969 12.6381C4.8126 12.299 4.9501 11.9552 5.08302 11.616C5.24344 11.2127 5.40844 10.8048 5.56885 10.4015C5.57802 10.3785 5.58719 10.3556 5.59635 10.3281C5.78885 10.4015 5.98594 10.4473 6.18302 10.4977C6.8201 10.6627 7.46635 10.791 8.11719 10.8965C8.63969 10.9835 9.16219 11.0477 9.68927 11.1027C10.6014 11.1944 11.518 11.2402 12.4347 11.2219C12.9572 11.2127 13.4797 11.1806 13.9976 11.1348C14.6026 11.0844 15.203 11.011 15.7989 10.9148C16.6651 10.7773 17.5222 10.5985 18.3609 10.3556C18.3884 10.351 18.4114 10.3419 18.4297 10.3327Z" fill="#DC2525"/>
<path d="M11.995 8.04954C12.6275 8.04496 13.2417 8.08162 13.8558 8.15954C14.3921 8.22829 14.9192 8.32454 15.4279 8.51246C15.5517 8.55829 15.6708 8.60871 15.7762 8.68662C15.8037 8.70954 15.8312 8.73246 15.8587 8.75537C15.9367 8.84246 15.9321 8.91121 15.845 8.98454C15.6937 9.10829 15.5242 9.19996 15.35 9.28704C14.5525 9.68579 13.7183 9.96079 12.8337 10.0845C12.1646 10.1808 11.4954 10.1579 10.8354 10.0295C9.96458 9.85996 9.13958 9.57579 8.36958 9.13579C8.28708 9.08996 8.20458 9.03954 8.13583 8.97537C8.05333 8.90204 8.04874 8.83787 8.12208 8.75537C8.17708 8.69121 8.24583 8.64996 8.31916 8.60871C8.59416 8.46662 8.88749 8.38412 9.18541 8.31537C9.71249 8.19162 10.2487 8.12287 10.7896 8.08162C11.1975 8.06329 11.6054 8.04496 11.995 8.04954Z" fill="#F0A71A"/>
<path d="M14.8271 5.88847C14.818 6.34222 14.7126 6.77764 14.4238 7.14431C14.2634 7.35056 14.0617 7.50181 13.7959 7.53847C13.4796 7.58431 13.2276 7.46056 13.0167 7.23139C12.7738 6.97014 12.6546 6.64931 12.6042 6.30097C12.5401 5.84722 12.5905 5.40264 12.7967 4.98556C12.9021 4.77014 13.0488 4.58222 13.2505 4.44472C13.5851 4.22014 13.9746 4.24306 14.2771 4.50431C14.5613 4.74722 14.7034 5.07264 14.7767 5.43014C14.8134 5.58139 14.8226 5.73264 14.8271 5.88847Z" fill="white"/>
<path d="M11.4267 5.95615C11.4267 6.38699 11.3305 6.78574 11.0692 7.13865C10.9134 7.3449 10.7163 7.49615 10.455 7.5374C10.1755 7.58324 9.94171 7.48699 9.73546 7.30365C9.46046 7.05615 9.30921 6.73532 9.23588 6.37782C9.12588 5.8599 9.17171 5.35574 9.42379 4.88365C9.50629 4.72782 9.62088 4.59032 9.76296 4.48032C10.1159 4.2099 10.5513 4.2374 10.8813 4.54907C11.1517 4.80115 11.2984 5.1174 11.3763 5.4749C11.413 5.63074 11.4313 5.79115 11.4267 5.95615Z" fill="white"/>
<path d="M7.43615 20.5293C7.73865 20.7722 8.05032 20.9968 8.38949 21.1847C9.06782 21.5651 9.7874 21.8126 10.5528 21.9455C11.0203 22.028 11.4924 22.0647 11.9645 22.0693C11.7628 22.0876 11.5612 22.1105 11.3641 22.1243C10.5528 22.1793 9.73699 22.2114 8.92574 22.2251C8.31615 22.2343 7.70657 22.2297 7.09699 22.2022C6.71199 22.1839 6.32699 22.1564 5.94657 22.0693C5.89615 22.0555 5.85032 22.0418 5.7999 22.028C5.57074 21.9639 5.53865 21.776 5.59365 21.5972C5.6349 21.4597 5.72657 21.3635 5.83657 21.2764C6.09324 21.0747 6.38657 20.9326 6.68907 20.8089C6.9274 20.7035 7.17949 20.621 7.43615 20.5293Z" fill="#F0A71A"/>
<path d="M12.0547 22.0732C12.293 22.0686 12.5359 22.0595 12.7743 22.0411C14.0209 21.9311 15.1714 21.5599 16.198 20.8265C16.3309 20.7349 16.4547 20.6295 16.583 20.5332C16.8993 20.6386 17.2109 20.7486 17.5134 20.8861C17.7472 20.9961 17.9764 21.1153 18.1826 21.2757C18.3155 21.3811 18.4209 21.5049 18.4484 21.6836C18.4714 21.844 18.4118 21.954 18.2651 22.0136C18.068 22.0961 17.8572 22.1236 17.6464 22.1511C16.8993 22.2382 16.143 22.2428 15.3914 22.2382C14.7314 22.2336 14.0714 22.2153 13.4114 22.1786C12.9668 22.1557 12.5222 22.1236 12.0776 22.087C12.0684 22.0778 12.0639 22.0732 12.0547 22.0732Z" fill="#F0A71A"/>
<path d="M7.14943 13.2598C7.41068 13.3056 7.67193 13.356 7.93318 13.4018C7.96068 13.4064 7.96526 13.4202 7.96526 13.4431C7.96526 13.4614 7.96526 13.4798 7.96526 13.4981C7.96526 14.4331 7.96526 15.3681 7.96526 16.3031C7.96526 16.381 7.98359 16.4085 8.06609 16.4223C8.70318 16.5277 9.34026 16.5735 9.98651 16.5552C10.234 16.5506 10.4815 16.5277 10.729 16.5002C10.7886 16.491 10.8023 16.4727 10.8023 16.4177C10.8023 15.7027 10.8023 14.9877 10.8023 14.2727C10.8023 14.1168 10.8069 13.961 10.8023 13.8052C10.8023 13.7502 10.8161 13.7364 10.8711 13.741C11.5128 13.7731 12.1544 13.7777 12.8007 13.7593C13.4194 13.741 14.0382 13.686 14.6523 13.6127C15.3811 13.5256 16.1053 13.4156 16.8294 13.2689C16.8478 13.2643 16.8661 13.2689 16.8844 13.2689C16.9532 13.6952 16.9944 14.126 17.0173 14.5568C17.0448 15.0564 17.0403 15.556 17.0173 16.0556C16.9623 17.151 16.7332 18.196 16.1557 19.1402C15.4819 20.2402 14.5103 20.9185 13.2544 21.2027C12.6586 21.3356 12.0582 21.3631 11.4532 21.3081C10.5778 21.2256 9.77109 20.9552 9.05609 20.4281C8.34109 19.901 7.84151 19.2043 7.50693 18.3839C7.27318 17.811 7.13568 17.2198 7.07151 16.6056C6.99818 15.8998 6.99359 15.1893 7.03026 14.4789C7.03943 14.0664 7.08068 13.6631 7.14943 13.2598Z" fill="white"/>
<path d="M13.7376 5.63867C13.921 5.64784 14.1043 5.67534 14.2739 5.76242C14.4251 5.84034 14.4435 6.00992 14.3151 6.11992C14.251 6.17492 14.1868 6.17034 14.1181 6.13367C13.9943 6.06492 13.8614 6.01909 13.7193 6.00992C13.4718 5.99617 13.2701 6.09242 13.1006 6.26201C13.0181 6.34451 12.9676 6.35367 12.9035 6.30326C12.8347 6.24367 12.821 6.15659 12.8851 6.06951C13.096 5.78076 13.3847 5.64784 13.7376 5.63867Z" fill="#040000"/>
<path d="M10.1797 6.03248C10.1797 5.88123 10.2209 5.72998 10.3172 5.59706C10.4959 5.34956 10.7939 5.34039 10.9909 5.56956C11.2155 5.82623 11.2109 6.28456 10.9864 6.54123C10.803 6.75206 10.528 6.74748 10.3493 6.53664C10.2301 6.39456 10.1797 6.22498 10.1797 6.03248Z" fill="#040000"/>
</svg>
