<svg width="24" height="24" viewBox="0 0 24 24" fill="none" xmlns="http://www.w3.org/2000/svg">
<g clip-path="url(#clip0_2744_73727)">
<path d="M16.2173 8.0512C16.4944 8.0512 16.7677 8.07148 17.0383 8.10089C16.301 4.70295 12.6291 2.17773 8.43826 2.17773C3.75255 2.17773 -0.0859375 5.33835 -0.0859375 9.3514C-0.0859375 11.6675 1.19138 13.5697 3.32506 15.0451L2.47263 17.5831L5.45219 16.1041C6.51903 16.3126 7.37403 16.5277 8.43826 16.5277C8.70562 16.5277 8.97035 16.5146 9.2338 16.4937C9.06709 15.9303 8.97035 15.3393 8.97035 14.7268C8.97038 11.0419 12.1683 8.0512 16.2173 8.0512ZM11.6348 5.76393C12.2768 5.76393 12.7016 6.18228 12.7016 6.81703C12.7016 7.44915 12.2768 7.87275 11.6348 7.87275C10.9955 7.87275 10.3549 7.44915 10.3549 6.81703C10.3549 6.18228 10.9955 5.76393 11.6348 5.76393ZM5.66921 7.87272C5.02987 7.87272 4.38532 7.44912 4.38532 6.81701C4.38532 6.18226 5.02987 5.7639 5.66921 5.7639C6.30784 5.7639 6.73342 6.18226 6.73342 6.81701C6.73342 7.44915 6.30784 7.87272 5.66921 7.87272ZM23.9976 14.6254C23.9976 11.253 20.5872 8.50421 16.7572 8.50421C12.7016 8.50421 9.5077 11.253 9.5077 14.6254C9.5077 18.0028 12.7016 20.7457 16.7572 20.7457C17.6057 20.7457 18.4621 20.5352 19.3144 20.3234L21.6528 21.5902L21.0115 19.4827C22.7229 18.212 23.9976 16.5277 23.9976 14.6254ZM14.4065 13.5697C13.9823 13.5697 13.5541 13.152 13.5541 12.7258C13.5541 12.3055 13.9823 11.8825 14.4065 11.8825C15.051 11.8825 15.4733 12.3055 15.4733 12.7258C15.4733 13.152 15.051 13.5697 14.4065 13.5697ZM19.0948 13.5697C18.6739 13.5697 18.2483 13.152 18.2483 12.7258C18.2483 12.3055 18.6739 11.8825 19.0948 11.8825C19.7341 11.8825 20.1616 12.3055 20.1616 12.7258C20.1616 13.152 19.7341 13.5697 19.0948 13.5697Z" fill="#20BF64"/>
</g>
<defs>
<clipPath id="clip0_2744_73727">
<rect width="24" height="24" fill="white"/>
</clipPath>
</defs>
</svg>
